<svg xmlns="http://www.w3.org/2000/svg" xmlns:xlink="http://www.w3.org/1999/xlink" width="1011.032" height="1362.658" viewBox="0 0 1011.032 1362.658">
  <defs>
    <linearGradient id="linear-gradient" x1="0.845" y1="2.861" x2="1.528" y2="-2.167" gradientUnits="objectBoundingBox">
      <stop offset="0" stop-color="#0a7e7e"/>
      <stop offset="1" stop-color="#172a3a"/>
    </linearGradient>
    <linearGradient id="linear-gradient-2" x1="0.936" y1="0.222" x2="-0.33" y2="0.785" gradientUnits="objectBoundingBox">
      <stop offset="0" stop-color="#29abe2"/>
      <stop offset="0.066" stop-color="#4abae7"/>
      <stop offset="0.155" stop-color="#70cced"/>
      <stop offset="0.252" stop-color="#90dcf3"/>
      <stop offset="0.355" stop-color="#abe9f7"/>
      <stop offset="0.468" stop-color="#bff2fa"/>
      <stop offset="0.595" stop-color="#cdf9fd"/>
      <stop offset="0.749" stop-color="#d6fdfe"/>
      <stop offset="1" stop-color="#d9ffff"/>
    </linearGradient>
    <linearGradient id="linear-gradient-3" x1="-0.048" y1="0.535" x2="3.034" y2="0.288" xlink:href="#linear-gradient"/>
    <linearGradient id="linear-gradient-4" x1="-1.159" y1="0.624" x2="1.924" y2="0.377" xlink:href="#linear-gradient"/>
    <linearGradient id="linear-gradient-5" x1="-2.27" y1="0.713" x2="0.813" y2="0.466" xlink:href="#linear-gradient"/>
    <linearGradient id="linear-gradient-6" x1="-2.917" y1="-25.029" x2="-2.917" y2="-25.025" gradientUnits="objectBoundingBox">
      <stop offset="0" stop-color="gray" stop-opacity="0.251"/>
      <stop offset="0.54" stop-color="gray" stop-opacity="0.122"/>
      <stop offset="1" stop-color="gray" stop-opacity="0.102"/>
    </linearGradient>
    <linearGradient id="linear-gradient-7" x1="-11.563" y1="-203.846" x2="-11.563" y2="-203.812" xlink:href="#linear-gradient-6"/>
    <filter id="Ellipse_59" x="303.364" y="159.835" width="80.432" height="80.432" filterUnits="userSpaceOnUse">
      <feOffset input="SourceAlpha"/>
      <feGaussianBlur stdDeviation="2.5" result="blur"/>
      <feFlood flood-color="#fff" flood-opacity="0.749"/>
      <feComposite operator="in" in2="blur"/>
      <feComposite in="SourceGraphic"/>
    </filter>
    <linearGradient id="linear-gradient-8" x1="-1.204" y1="2.505" x2="-0.204" y2="2.505" xlink:href="#linear-gradient"/>
    <linearGradient id="linear-gradient-9" x1="-0.082" y1="0.497" x2="0.903" y2="0.497" xlink:href="#linear-gradient"/>
    <linearGradient id="linear-gradient-10" x1="-1.631" y1="0.87" x2="-0.057" y2="0.87" xlink:href="#linear-gradient"/>
  </defs>
  <g id="Group_226" data-name="Group 226" transform="translate(0 -2792)">
    <g id="Group_225" data-name="Group 225">
      <g id="Group_224" data-name="Group 224">
        <path id="Path_430" data-name="Path 430" d="M1316.713,4231.92h71.4l-121.826-105.735A105,105,0,0,0,1162.62,4004.87h-47.643a512.333,512.333,0,0,0-514.162-8.6l-223.736,124.97v1172.6l722.953-403.821a511.609,511.609,0,0,0,216.681-658.1Z" transform="translate(-377.079 -1139.187)" fill="#73ceee" opacity="0.1"/>
        <g id="Group_212" data-name="Group 212" transform="translate(-377.079 -1150.217)">
          <circle id="Ellipse_56" data-name="Ellipse 56" cx="6.636" cy="6.636" r="6.636" transform="translate(1316.577 4649.188)" fill="#80e187"/>
          <circle id="Ellipse_57" data-name="Ellipse 57" cx="6.636" cy="6.636" r="6.636" transform="translate(1335.155 4649.188)" fill="#80e187"/>
          <circle id="Ellipse_58" data-name="Ellipse 58" cx="6.636" cy="6.636" r="6.636" transform="translate(1353.733 4649.188)" fill="#80e187"/>
          <path id="Path_374" data-name="Path 374" d="M1134.626,4627.056H1267.4a6.7,6.7,0,0,1,0,13.391H1134.626a6.7,6.7,0,0,1,0-13.391Z" fill="url(#linear-gradient)"/>
          <path id="Path_375" data-name="Path 375" d="M1121.3,4649.187h182.21a6.636,6.636,0,1,1,0,13.273H1121.3a6.636,6.636,0,0,1,0-13.273Z" fill="#80e187"/>
          <path id="Path_376" data-name="Path 376" d="M1064.2,4671.2h182.21a6.636,6.636,0,1,1,0,13.273H1064.2a6.636,6.636,0,0,1,0-13.273Z" fill="#80e187"/>
          <path id="Path_377" data-name="Path 377" d="M1209.99,4242.3a411.106,411.106,0,0,0-81.3-102.93h-45.02a3.725,3.725,0,0,1,0-7.45h36.66q-10.335-8.97-21.19-17.17h63.48a4.94,4.94,0,1,0,0-9.88h-77.11a412.279,412.279,0,0,0-435.93-21.29l-272.5,152.208V5179.3L1051.27,4802.72a411.851,411.851,0,0,0,158.72-560.42Z" fill="url(#linear-gradient-2)"/>
          <path id="Path_378" data-name="Path 378" d="M781.5,4344.632l-42.576-33.553V4284.1H723.441v14.78l-54.331-42.817-113.5,88.565,3.382,19,14.639-11.423v122.333h67.426v4.032H694.94v-4.032h70.02V4353.259l13.136,10.353Z" opacity="0.3"/>
          <g id="Group_177" data-name="Group 177">
            <path id="Path_379" data-name="Path 379" d="M940.528,4395.215l-19.7-19.7v8.893H799.371v21.6H920.833v8.893Z" opacity="0.3"/>
            <path id="Path_380" data-name="Path 380" d="M935.528,4390.215l-19.7-19.7v8.893H794.371v21.6H915.833v8.893Z" fill="#33a568"/>
          </g>
          <path id="Path_381" data-name="Path 381" d="M1150.2,4264.785a21.556,21.556,0,0,0-21.557-21.558H1001.02a21.556,21.556,0,0,0-21.558,21.558v210.648h106.064a21.557,21.557,0,0,0,21.558-21.558v-189.09H1150.2Z" opacity="0.3"/>
          <g id="Group_180" data-name="Group 180">
            <g id="Group_178" data-name="Group 178" opacity="0.3">
              <path id="Path_382" data-name="Path 382" d="M828.515,4345.859a1.7,1.7,0,0,1,1.253.513,1.6,1.6,0,0,1,.283.371h.018l5.509,11.036,5.51-11.036.017.017a1.948,1.948,0,0,1,.3-.388,1.755,1.755,0,0,1,2.489.009,1.716,1.716,0,0,1,.513,1.245,1.65,1.65,0,0,1-.336,1.024l-6.834,13.72a1.527,1.527,0,0,1-.406.618,1.678,1.678,0,0,1-1.254.53,1.66,1.66,0,0,1-1.236-.53,1.554,1.554,0,0,1-.406-.6l-5.421-10.86-5.4,10.842a1.54,1.54,0,0,1-.407.618,1.676,1.676,0,0,1-1.253.53,1.656,1.656,0,0,1-1.236-.53,1.542,1.542,0,0,1-.406-.6l-6.869-13.756a1.679,1.679,0,0,1-.319-1.006,1.773,1.773,0,0,1,3.02-1.254,1.628,1.628,0,0,1,.283.371h.017l5.51,11.036,5.509-11.036.018.017a1.9,1.9,0,0,1,.3-.388A1.684,1.684,0,0,1,828.515,4345.859Z"/>
              <path id="Path_383" data-name="Path 383" d="M863.884,4345.859a1.709,1.709,0,0,1,1.254.513,1.623,1.623,0,0,1,.282.371h.018l5.509,11.036,5.51-11.036.017.017a1.945,1.945,0,0,1,.3-.388,1.755,1.755,0,0,1,2.489.009,1.716,1.716,0,0,1,.513,1.245,1.649,1.649,0,0,1-.336,1.024l-6.834,13.72a1.527,1.527,0,0,1-.406.618,1.678,1.678,0,0,1-1.254.53,1.659,1.659,0,0,1-1.236-.53,1.554,1.554,0,0,1-.406-.6l-5.421-10.86-5.4,10.842a1.548,1.548,0,0,1-.406.618,1.68,1.68,0,0,1-1.254.53,1.656,1.656,0,0,1-1.236-.53,1.542,1.542,0,0,1-.406-.6l-6.869-13.756a1.679,1.679,0,0,1-.319-1.006,1.773,1.773,0,0,1,3.021-1.254,1.651,1.651,0,0,1,.282.371h.017l5.51,11.036,5.509-11.036.018.017a1.9,1.9,0,0,1,.3-.388A1.684,1.684,0,0,1,863.884,4345.859Z"/>
              <path id="Path_384" data-name="Path 384" d="M899.254,4345.859a1.7,1.7,0,0,1,1.253.513,1.6,1.6,0,0,1,.283.371h.018l5.509,11.036,5.51-11.036.017.017a1.979,1.979,0,0,1,.3-.388,1.756,1.756,0,0,1,2.49.009,1.715,1.715,0,0,1,.512,1.245,1.648,1.648,0,0,1-.335,1.024l-6.834,13.72a1.527,1.527,0,0,1-.406.618,1.678,1.678,0,0,1-1.254.53,1.659,1.659,0,0,1-1.236-.53,1.554,1.554,0,0,1-.406-.6l-5.421-10.86-5.4,10.842a1.54,1.54,0,0,1-.407.618,1.677,1.677,0,0,1-1.253.53,1.656,1.656,0,0,1-1.236-.53,1.556,1.556,0,0,1-.407-.6l-6.868-13.756a1.672,1.672,0,0,1-.319-1.006,1.773,1.773,0,0,1,3.02-1.254,1.627,1.627,0,0,1,.283.371h.017l5.51,11.036,5.509-11.036.017.017a1.948,1.948,0,0,1,.3-.388A1.684,1.684,0,0,1,899.254,4345.859Z"/>
            </g>
            <g id="Group_179" data-name="Group 179">
              <path id="Path_385" data-name="Path 385" d="M830.646,4343.729a1.7,1.7,0,0,1,1.253.513,1.6,1.6,0,0,1,.283.371h.017l5.51,11.035,5.509-11.035.018.017a1.828,1.828,0,0,1,.3-.388,1.756,1.756,0,0,1,2.49.009,1.714,1.714,0,0,1,.512,1.244,1.645,1.645,0,0,1-.336,1.025l-6.834,13.72a1.535,1.535,0,0,1-.4.618,1.68,1.68,0,0,1-1.254.53,1.66,1.66,0,0,1-1.237-.53,1.541,1.541,0,0,1-.4-.6l-5.421-10.86-5.4,10.843a1.528,1.528,0,0,1-.406.618,1.68,1.68,0,0,1-1.254.53,1.656,1.656,0,0,1-1.236-.53,1.554,1.554,0,0,1-.406-.6l-6.869-13.755a1.681,1.681,0,0,1-.318-1.007,1.773,1.773,0,0,1,3.02-1.253,1.628,1.628,0,0,1,.282.371h.017l5.51,11.035,5.51-11.035.017.017a1.862,1.862,0,0,1,.3-.388A1.681,1.681,0,0,1,830.646,4343.729Z" fill="url(#linear-gradient-3)"/>
              <path id="Path_386" data-name="Path 386" d="M866.015,4343.729a1.7,1.7,0,0,1,1.253.513,1.607,1.607,0,0,1,.283.371h.017l5.51,11.035,5.509-11.035.018.017a1.828,1.828,0,0,1,.3-.388,1.756,1.756,0,0,1,2.49.009,1.714,1.714,0,0,1,.512,1.244,1.645,1.645,0,0,1-.336,1.025l-6.834,13.72a1.524,1.524,0,0,1-.405.618,1.68,1.68,0,0,1-1.254.53,1.66,1.66,0,0,1-1.237-.53,1.542,1.542,0,0,1-.405-.6l-5.421-10.86-5.4,10.843a1.528,1.528,0,0,1-.406.618,1.678,1.678,0,0,1-1.254.53,1.658,1.658,0,0,1-1.236-.53,1.554,1.554,0,0,1-.406-.6L850.44,4346.5a1.681,1.681,0,0,1-.318-1.007,1.773,1.773,0,0,1,3.02-1.253,1.629,1.629,0,0,1,.282.371h.017l5.51,11.035,5.51-11.035.017.017a1.858,1.858,0,0,1,.3-.388A1.683,1.683,0,0,1,866.015,4343.729Z" fill="url(#linear-gradient-4)"/>
              <path id="Path_387" data-name="Path 387" d="M901.385,4343.729a1.7,1.7,0,0,1,1.253.513,1.607,1.607,0,0,1,.283.371h.017l5.51,11.035,5.509-11.035.017.017a1.865,1.865,0,0,1,.3-.388,1.755,1.755,0,0,1,2.489.009,1.711,1.711,0,0,1,.513,1.244,1.651,1.651,0,0,1-.336,1.025l-6.834,13.72a1.527,1.527,0,0,1-.406.618,1.677,1.677,0,0,1-1.253.53,1.66,1.66,0,0,1-1.237-.53,1.555,1.555,0,0,1-.406-.6l-5.42-10.86-5.4,10.843a1.538,1.538,0,0,1-.406.618,1.68,1.68,0,0,1-1.254.53,1.656,1.656,0,0,1-1.236-.53,1.543,1.543,0,0,1-.406-.6L885.81,4346.5a1.681,1.681,0,0,1-.318-1.007,1.773,1.773,0,0,1,3.02-1.253,1.628,1.628,0,0,1,.282.371h.017l5.51,11.035,5.509-11.035.018.017a1.828,1.828,0,0,1,.3-.388A1.681,1.681,0,0,1,901.385,4343.729Z" fill="url(#linear-gradient-5)"/>
            </g>
          </g>
          <rect id="Rectangle_365" data-name="Rectangle 365" width="553.009" height="17.094" transform="translate(560.633 4496.232)" fill="#666"/>
          <path id="Path_388" data-name="Path 388" d="M472.284,4537.26a34.064,34.064,0,1,0-47.892-5.2A34.064,34.064,0,0,0,472.284,4537.26Zm-32.02-39.823a17.033,17.033,0,1,1-2.6,23.947A17.033,17.033,0,0,1,440.264,4497.437Z" fill="#fff"/>
          <path id="Path_389" data-name="Path 389" d="M994.794,4561.563a34.064,34.064,0,1,0-47.892-5.205A34.066,34.066,0,0,0,994.794,4561.563Zm-32.02-39.823a17.033,17.033,0,1,1-2.6,23.947A17.032,17.032,0,0,1,962.774,4521.74Z" fill="#fff" opacity="0.5"/>
          <path id="Path_390" data-name="Path 390" d="M757.842,4816.742a34.064,34.064,0,1,0-47.892-5.205A34.065,34.065,0,0,0,757.842,4816.742Zm-32.02-39.823a17.033,17.033,0,1,1-2.6,23.948A17.033,17.033,0,0,1,725.822,4776.919Z" fill="#fff" opacity="0.25"/>
          <path id="Path_391" data-name="Path 391" d="M566.255,4942.273l-174.1-216.528A102.087,102.087,0,0,0,377.079,4625.6v34.412a85.39,85.39,0,0,1,0,57.794v57.138l166.232,206.746-2.371,10.646-39.9.1L499,4969.633a8.527,8.527,0,0,0-5.924-7.368l-26.807-8.441-12.808-15.93-2.506-28.016a8.528,8.528,0,0,0-5.924-7.368l-23.865-7.495-2.229-24.927a8.514,8.514,0,0,0-5.924-7.368l-23.867-7.528-2.228-24.927a8.518,8.518,0,0,0-4.916-6.973l-4.92-2.259v48.05a8.384,8.384,0,0,0,1.51.663l23.913,7.492,2.228,24.927a8.531,8.531,0,0,0,5.924,7.368l23.865,7.525,2.228,24.927a8.588,8.588,0,0,0,1.836,4.592l16.008,19.91a8.555,8.555,0,0,0,4.076,2.785l23.88,7.52,2.228,24.926a8.521,8.521,0,0,0,8.5,7.765l54.532-.138a8.513,8.513,0,0,0,8.294-6.67l11.841-53.227A8.525,8.525,0,0,0,566.255,4942.273Zm-18.2,18.133L378.806,4749.911q2.668-3.587,5.035-7.326L550.417,4949.76Z" fill="#172a3a"/>
          <g id="Group_183" data-name="Group 183">
            <path id="Path_392" data-name="Path 392" d="M950.355,4745.444c-7.773,11.826-19.858,26.9-33.3,31.524q-1.761.606-3.623,1.057c-16.047,3.919-36.976-.425-52.227-4.977-22.665-6.763-47.59-18.206-72.092-33.087-.137-.083-.281-.171-.414-.256-24.331-14.822-45.828-31.575-62.178-48.474-11.919-12.312-26.663-30.592-29.217-47.754-2.089-14.065,5.715-31.735,12.629-44.084a17.234,17.234,0,0,1,22.685-7.013c6.435,3.186,16.114,8.2,25.674,14.008,9.58,5.819,18.5,12.1,24.291,16.35a17.144,17.144,0,0,1,4.543,22.859l-6.262,10.307a.969.969,0,0,0,.324,1.328l42.082,25.565,42.914,26.066a.978.978,0,0,0,1.333-.326l6.257-10.306a17.154,17.154,0,0,1,22.386-6.5c3.22,1.593,7.251,3.646,11.673,6.023s9.239,5.088,14.031,7.994c9.562,5.813,18.47,12.087,24.26,16.336A17.226,17.226,0,0,1,950.355,4745.444Z" opacity="0.3"/>
            <path id="Path_393" data-name="Path 393" d="M935.9,4728.386c-7.773,11.827-19.858,26.9-33.3,31.525q-1.762.606-3.623,1.057c-16.048,3.919-36.977-.425-52.228-4.978-22.665-6.762-47.589-18.206-72.091-33.086-.138-.084-.282-.171-.415-.256-24.331-14.822-45.827-31.575-62.178-48.474-11.918-12.313-26.662-30.592-29.217-47.754-2.088-14.066,5.715-31.736,12.629-44.084a17.237,17.237,0,0,1,22.686-7.014c6.435,3.187,16.113,8.2,25.673,14.008,9.58,5.82,18.5,12.1,24.292,16.351a17.142,17.142,0,0,1,4.542,22.858l-6.261,10.308a.94.94,0,0,0-.112.731.951.951,0,0,0,.436.6l42.082,25.565,42.913,26.066a.979.979,0,0,0,1.333-.326l6.257-10.306a17.156,17.156,0,0,1,22.387-6.5c3.22,1.593,7.25,3.646,11.673,6.023s9.239,5.088,14.031,7.994c9.561,5.813,18.47,12.087,24.259,16.336A17.224,17.224,0,0,1,935.9,4728.386Z" fill="#33a568"/>
            <g id="Group_181" data-name="Group 181">
              <path id="Path_394" data-name="Path 394" d="M779.528,4537.2a8.138,8.138,0,1,0-15.811,3.861l1.721,7.048a8.138,8.138,0,1,0,15.811-3.861Z" fill="#55696e"/>
              <path id="Path_395" data-name="Path 395" d="M799.368,4556.636l1.72,7.046a8.137,8.137,0,1,1-15.81,3.86l-1.721-7.046a8.138,8.138,0,0,1,15.811-3.86Z" fill="#55696e"/>
              <path id="Path_396" data-name="Path 396" d="M760.332,4557.79a8.138,8.138,0,0,0-5.975,9.836l1.721,7.048a8.137,8.137,0,1,0,15.81-3.861l-1.721-7.048A8.137,8.137,0,0,0,760.332,4557.79Z" fill="#55696e"/>
            </g>
            <g id="Group_182" data-name="Group 182">
              <path id="Path_397" data-name="Path 397" d="M937.672,4643.122a8.138,8.138,0,0,0-15.811,3.86l1.721,7.049a8.138,8.138,0,1,0,15.811-3.861Z" fill="#323c3c"/>
              <path id="Path_398" data-name="Path 398" d="M929.025,4669.511l1.721,7.046a8.138,8.138,0,1,1-15.811,3.861l-1.72-7.046a8.137,8.137,0,1,1,15.81-3.861Z" fill="#55696e"/>
              <path id="Path_399" data-name="Path 399" d="M948.386,4656.407a8.137,8.137,0,0,0-5.975,9.835l1.721,7.049a8.137,8.137,0,1,0,15.81-3.861l-1.721-7.048A8.137,8.137,0,0,0,948.386,4656.407Z" fill="#323c3c"/>
            </g>
          </g>
          <g id="Group_184" data-name="Group 184">
            <path id="Path_400" data-name="Path 400" d="M570.949,4118.937a42.774,42.774,0,0,0-41.5,34.178,56.2,56.2,0,1,0-22.853,107.54h48.253a59.258,59.258,0,0,0,59.258-59.258v-39.019C614.109,4138.64,594.687,4118.72,570.949,4118.937Z" fill="#fff" opacity="0.3"/>
            <path id="Path_401" data-name="Path 401" d="M546.245,4187.3a26.943,26.943,0,0,0-26.138,21.527,35.4,35.4,0,1,0-14.394,67.733h30.393a37.323,37.323,0,0,0,37.323-37.323V4214.66C573.429,4199.709,561.2,4187.162,546.245,4187.3Z" fill="#fff"/>
          </g>
          <g id="Group_185" data-name="Group 185">
            <path id="Path_402" data-name="Path 402" d="M1018.157,4142.27a42.773,42.773,0,0,0-41.5,34.178,56.2,56.2,0,1,0-22.853,107.539h48.253a59.258,59.258,0,0,0,59.258-59.258v-39.018C1061.317,4161.973,1041.894,4142.052,1018.157,4142.27Z" fill="#fff" opacity="0.3"/>
            <path id="Path_403" data-name="Path 403" d="M993.453,4210.632a26.941,26.941,0,0,0-26.138,21.526,35.4,35.4,0,1,0-14.394,67.734h30.392a37.324,37.324,0,0,0,37.324-37.324v-24.575C1020.637,4223.041,1008.4,4210.5,993.453,4210.632Z" fill="#fff"/>
          </g>
          <path id="Path_404" data-name="Path 404" d="M905.465,4130.026c-4.5-14.107-17.679-24.558-33.134-24.416a34.478,34.478,0,0,0-33.449,27.548,45.3,45.3,0,1,0-18.42,86.68h38.894a47.591,47.591,0,0,0,18.885-3.882,45.737,45.737,0,1,0,27.224-85.93Z" fill="#fff"/>
          <path id="Path_405" data-name="Path 405" d="M696.825,4223.456c-2.35-8.371-9.236-14.572-17.31-14.488-8.632.089-15.812,7.079-17.474,16.347a21.156,21.156,0,0,0-10.8-2.291c-12.342.685-22.229,12.249-22.482,26.281-.274,15.1,10.424,27.445,23.659,27.445h20.319a22.34,22.34,0,0,0,9.866-2.3,21.541,21.541,0,0,0,10.986,3.04c13.2,0,23.9-12.152,23.9-27.143C717.485,4236.6,708.491,4225.252,696.825,4223.456Z" fill="#fff" opacity="0.5"/>
          <g id="Group_186" data-name="Group 186">
            <path id="Path_87" data-name="Path 87" d="M710.441,4294.506V4274.1h15.483v38.729Z" fill="#33a568"/>
            <path id="Path_90" data-name="Path 90" d="M744.646,4330.748H567.938c-4.036,0-7.3,1.815-7.3,4.06v129.726H751.961V4334.808C751.961,4332.563,748.682,4330.748,744.646,4330.748Z" fill="url(#linear-gradient-6)"/>
            <path id="Path_91" data-name="Path 91" d="M655.733,4256.518l-92.185,68.473v134.595H748.471V4329.875Z" fill="#fff"/>
            <path id="Path_93" data-name="Path 93" d="M545.994,4353.623l-3.382-19,113.5-88.565L768.5,4334.632l-3.4,18.98-109.005-85.9Z" fill="#33a568"/>
            <rect id="Rectangle_202" data-name="Rectangle 202" width="41.787" height="59.381" transform="translate(634.84 4400.206)" fill="#33a568"/>
            <rect id="Rectangle_203" data-name="Rectangle 203" width="33.723" height="11.914" transform="translate(582.792 4359.15)" fill="#33a568"/>
            <rect id="Rectangle_204" data-name="Rectangle 204" width="33.723" height="21.809" transform="translate(582.792 4371.064)" fill="#33a568" opacity="0.2"/>
            <rect id="Rectangle_205" data-name="Rectangle 205" width="33.723" height="11.914" transform="translate(694.956 4359.15)" fill="#33a568"/>
            <rect id="Rectangle_206" data-name="Rectangle 206" width="33.723" height="21.809" transform="translate(694.956 4371.064)" fill="#33a568" opacity="0.2"/>
            <path id="Path_95" data-name="Path 95" d="M655.733,4336.61a18.694,18.694,0,0,0,18.694-18.695H637.039A18.694,18.694,0,0,0,655.733,4336.61Z" fill="#33a568"/>
            <path id="Path_97" data-name="Path 97" d="M655.733,4299.4a18.7,18.7,0,0,0-18.694,18.677h37.389A18.7,18.7,0,0,0,655.733,4299.4Z" fill="#33a568" opacity="0.2"/>
            <circle id="Ellipse_19" data-name="Ellipse 19" cx="3.301" cy="3.301" r="3.301" transform="translate(663.611 4426.413)" fill="#263238"/>
            <rect id="Rectangle_207" data-name="Rectangle 207" width="53.881" height="17.593" transform="translate(628.059 4450.973)" fill="url(#linear-gradient-7)"/>
            <rect id="Rectangle_208" data-name="Rectangle 208" width="51.682" height="15.028" transform="translate(629.157 4452.437)" fill="#fff"/>
          </g>
          <g id="Group_187" data-name="Group 187">
            <path id="Path_406" data-name="Path 406" d="M867.963,4210.748l-73.989,73.989-33.159-33.159-15.277,15.277,33.159,33.159h0l15.277,15.276,15.277-15.276,73.989-73.989Z" opacity="0.3"/>
            <path id="Path_407" data-name="Path 407" d="M867.963,4197.748l-73.989,73.989-33.159-33.159-15.277,15.277,33.159,33.159h0l15.277,15.276,15.277-15.276,73.989-73.989Z" fill="#33a568"/>
          </g>
          <g id="Group_208" data-name="Group 208">
            <path id="Path_408" data-name="Path 408" d="M1135.2,4251.785h-43.116a21.558,21.558,0,1,1,43.116,0Z" fill="#666"/>
            <g id="Group_207" data-name="Group 207">
              <path id="Path_409" data-name="Path 409" d="M986.02,4230.227a21.556,21.556,0,0,0-21.558,21.558v210.648h106.064a21.557,21.557,0,0,0,21.558-21.558v-189.09a21.557,21.557,0,0,1,21.558-21.558Z" fill="#fff"/>
              <g id="Group_206" data-name="Group 206">
                <g id="Group_188" data-name="Group 188">
                  <rect id="Rectangle_366" data-name="Rectangle 366" width="44.101" height="5.03" rx="2.515" transform="translate(1010.087 4246.947)" fill="#00897b"/>
                </g>
                <g id="Group_203" data-name="Group 203">
                  <g id="Group_197" data-name="Group 197">
                    <g id="Group_189" data-name="Group 189">
                      <path id="Path_410" data-name="Path 410" d="M1078.994,4269.3a.2.2,0,0,1,.2.2v2.481a.2.2,0,0,1-.2.2H1027.25a.2.2,0,0,1-.2-.2V4269.5a.2.2,0,0,1,.2-.2h51.744m0-1.078H1027.25a1.275,1.275,0,0,0-1.275,1.275v2.481a1.274,1.274,0,0,0,1.275,1.274h51.744a1.273,1.273,0,0,0,1.274-1.274V4269.5a1.274,1.274,0,0,0-1.274-1.275Z" fill="#33a568"/>
                    </g>
                    <g id="Group_190" data-name="Group 190">
                      <path id="Path_411" data-name="Path 411" d="M1078.994,4284.389a.2.2,0,0,1,.2.2v2.481a.2.2,0,0,1-.2.2H1027.25a.2.2,0,0,1-.2-.2v-2.481a.2.2,0,0,1,.2-.2h51.744m0-1.077H1027.25a1.274,1.274,0,0,0-1.275,1.274v2.481a1.275,1.275,0,0,0,1.275,1.275h51.744a1.274,1.274,0,0,0,1.274-1.275v-2.481a1.273,1.273,0,0,0-1.274-1.274Z" fill="#33a568"/>
                    </g>
                    <g id="Group_191" data-name="Group 191">
                      <path id="Path_412" data-name="Path 412" d="M1078.994,4299.48a.2.2,0,0,1,.2.2v2.481a.2.2,0,0,1-.2.2H1027.25a.2.2,0,0,1-.2-.2v-2.481a.2.2,0,0,1,.2-.2h51.744m0-1.078H1027.25a1.275,1.275,0,0,0-1.275,1.275v2.481a1.275,1.275,0,0,0,1.275,1.274h51.744a1.274,1.274,0,0,0,1.274-1.274v-2.481a1.274,1.274,0,0,0-1.274-1.275Z" fill="#33a568"/>
                    </g>
                    <g id="Group_192" data-name="Group 192">
                      <path id="Path_413" data-name="Path 413" d="M1078.994,4314.57a.2.2,0,0,1,.2.2v2.481a.2.2,0,0,1-.2.2H1027.25a.2.2,0,0,1-.2-.2v-2.481a.2.2,0,0,1,.2-.2h51.744m0-1.077H1027.25a1.274,1.274,0,0,0-1.275,1.274v2.481a1.275,1.275,0,0,0,1.275,1.275h51.744a1.274,1.274,0,0,0,1.274-1.275v-2.481a1.273,1.273,0,0,0-1.274-1.274Z" fill="#33a568"/>
                    </g>
                    <g id="Group_193" data-name="Group 193">
                      <path id="Path_414" data-name="Path 414" d="M1078.994,4343.314a.2.2,0,0,1,.2.2v2.481a.2.2,0,0,1-.2.2H1027.25a.2.2,0,0,1-.2-.2v-2.481a.2.2,0,0,1,.2-.2h51.744m0-1.078H1027.25a1.276,1.276,0,0,0-1.275,1.275v2.481a1.275,1.275,0,0,0,1.275,1.274h51.744a1.274,1.274,0,0,0,1.274-1.274v-2.481a1.275,1.275,0,0,0-1.274-1.275Z" fill="#33a568"/>
                    </g>
                    <g id="Group_194" data-name="Group 194">
                      <path id="Path_415" data-name="Path 415" d="M1078.994,4358.4a.2.2,0,0,1,.2.2v2.481a.2.2,0,0,1-.2.2H1027.25a.2.2,0,0,1-.2-.2V4358.6a.2.2,0,0,1,.2-.2h51.744m0-1.078H1027.25a1.274,1.274,0,0,0-1.275,1.274v2.481a1.275,1.275,0,0,0,1.275,1.275h51.744a1.274,1.274,0,0,0,1.274-1.275V4358.6a1.273,1.273,0,0,0-1.274-1.274Z" fill="#33a568"/>
                    </g>
                    <g id="Group_195" data-name="Group 195">
                      <path id="Path_416" data-name="Path 416" d="M1078.994,4373.5a.2.2,0,0,1,.2.2v2.481a.2.2,0,0,1-.2.2H1027.25a.2.2,0,0,1-.2-.2v-2.481a.2.2,0,0,1,.2-.2h51.744m0-1.078H1027.25a1.275,1.275,0,0,0-1.275,1.275v2.481a1.274,1.274,0,0,0,1.275,1.274h51.744a1.273,1.273,0,0,0,1.274-1.274v-2.481a1.274,1.274,0,0,0-1.274-1.275Z" fill="#33a568"/>
                    </g>
                    <g id="Group_196" data-name="Group 196">
                      <path id="Path_417" data-name="Path 417" d="M1078.994,4388.586a.2.2,0,0,1,.2.2v2.481a.2.2,0,0,1-.2.2H1027.25a.2.2,0,0,1-.2-.2v-2.481a.2.2,0,0,1,.2-.2h51.744m0-1.078H1027.25a1.275,1.275,0,0,0-1.275,1.274v2.481a1.275,1.275,0,0,0,1.275,1.275h51.744a1.274,1.274,0,0,0,1.274-1.275v-2.481a1.274,1.274,0,0,0-1.274-1.274Z" fill="#33a568"/>
                    </g>
                  </g>
                  <g id="Group_202" data-name="Group 202">
                    <g id="Group_198" data-name="Group 198">
                      <rect id="Rectangle_367" data-name="Rectangle 367" width="27.597" height="5.03" rx="2.515" transform="translate(984.007 4268.221)" fill="#33a568"/>
                    </g>
                    <g id="Group_199" data-name="Group 199">
                      <rect id="Rectangle_368" data-name="Rectangle 368" width="27.597" height="5.03" rx="2.515" transform="translate(984.007 4283.312)" fill="#33a568"/>
                    </g>
                    <g id="Group_200" data-name="Group 200">
                      <rect id="Rectangle_369" data-name="Rectangle 369" width="27.597" height="5.03" rx="2.515" transform="translate(984.007 4298.402)" fill="#33a568"/>
                    </g>
                    <g id="Group_201" data-name="Group 201">
                      <rect id="Rectangle_370" data-name="Rectangle 370" width="27.597" height="5.03" rx="2.515" transform="translate(984.007 4313.493)" fill="#33a568"/>
                    </g>
                  </g>
                </g>
                <g id="Group_204" data-name="Group 204">
                  <rect id="Rectangle_371" data-name="Rectangle 371" width="95.615" height="5.03" rx="2.515" transform="translate(984.33 4329.397)" fill="#69f0ae"/>
                </g>
                <g id="Group_205" data-name="Group 205">
                  <path id="Path_418" data-name="Path 418" d="M1074.1,4421.377H990.176a2.428,2.428,0,0,1-2.33-2.515h0a2.428,2.428,0,0,1,2.33-2.515H1074.1a2.428,2.428,0,0,1,2.33,2.515h0A2.428,2.428,0,0,1,1074.1,4421.377Z" fill="#69f0ae"/>
                </g>
              </g>
            </g>
          </g>
          <g id="Group_210" data-name="Group 210">
            <g id="Group_209" data-name="Group 209">
              <g transform="matrix(1, 0, 0, 1, 377.08, 3942.22)" filter="url(#Ellipse_59)">
                <circle id="Ellipse_59-2" data-name="Ellipse 59" cx="32.716" cy="32.716" r="32.716" transform="translate(310.86 167.34)" fill="#fff"/>
              </g>
              <circle id="Ellipse_60" data-name="Ellipse 60" cx="24.283" cy="24.283" r="24.283" transform="translate(696.376 4117.985)" fill="#f7ba1e"/>
            </g>
            <path id="Path_419" data-name="Path 419" d="M717.944,4102.253l2.715-15.465,2.715,15.465Z" fill="#fff"/>
            <path id="Path_420" data-name="Path 420" d="M684.648,4124.611l-12.036-10.083,14.75,5.381Z" fill="#fff"/>
            <path id="Path_421" data-name="Path 421" d="M687.362,4164.626l-14.75,5.382,12.036-10.083Z" fill="#fff"/>
            <path id="Path_422" data-name="Path 422" d="M723.373,4182.283l-2.715,15.465-2.715-15.465Z" fill="#fff"/>
            <path id="Path_423" data-name="Path 423" d="M756.67,4159.924l12.035,10.083-14.75-5.382Z" fill="#fff"/>
            <path id="Path_424" data-name="Path 424" d="M753.955,4119.91l14.75-5.381-12.035,10.083Z" fill="#fff"/>
          </g>
          <path id="Path_425" data-name="Path 425" d="M1085.392,4331.252a36.215,36.215,0,0,0,1.072-20.533l-2.655-11.051a67.239,67.239,0,0,1-16.233-5.1,5.833,5.833,0,0,1-9.2-.793,5.8,5.8,0,0,0-2.655,1.441l-3.113-12.962a5.837,5.837,0,1,0-11.351,2.726l4.906,20.429-3.256,3.516a10.769,10.769,0,0,0-1.71,12.11A42.609,42.609,0,0,0,1057,4338.2l.057.034,1.426,5.939a1.46,1.46,0,0,0,1.76,1.079l25.54-6.134a1.46,1.46,0,0,0,1.078-1.76Z" opacity="0.3"/>
          <g id="Group_211" data-name="Group 211">
            <path id="Path_426" data-name="Path 426" d="M1065.877,4296.053a4.378,4.378,0,1,1,8.513-2.044l2.655,11.051a34.751,34.751,0,0,1-1.174,20.108l1.568,6.527-25.54,6.134-1.567-6.527a41.214,41.214,0,0,1-15.827-16.928,9.266,9.266,0,0,1,1.477-10.462l3.787-4.09-5.088-21.188a4.378,4.378,0,0,1,8.513-2.045l4.294,17.878a4.378,4.378,0,0,1,8.513-2.045l.681,2.838a4.378,4.378,0,0,1,8.514-2.045Z" fill="#debd97"/>
            <path id="Path_427" data-name="Path 427" d="M1071.441,4306.723a1.459,1.459,0,1,0-1.76-1.078A1.461,1.461,0,0,0,1071.441,4306.723Z" fill="url(#linear-gradient-8)"/>
            <path id="Path_428" data-name="Path 428" d="M1033.2,4315.03A42.609,42.609,0,0,0,1049,4332.2l.057.035,1.426,5.938a1.46,1.46,0,0,0,1.76,1.079l25.54-6.134a1.46,1.46,0,0,0,1.078-1.76l-1.466-6.1a36.215,36.215,0,0,0,1.072-20.533l-2.655-11.051a67.17,67.17,0,0,1-16.233-5.106,5.831,5.831,0,0,1-9.2-.793,5.805,5.805,0,0,0-2.655,1.442l-3.113-12.962a5.837,5.837,0,1,0-11.351,2.726l4.906,20.429-3.256,3.516A10.769,10.769,0,0,0,1033.2,4315.03Zm3.851-10.127,1.934-2.089,2.317,9.646a1.459,1.459,0,0,0,2.838-.681l-8.043-33.486a2.919,2.919,0,0,1,5.676-1.363l6.679,27.81a1.459,1.459,0,0,0,2.838-.682l-2.386-9.932a2.919,2.919,0,0,1,5.676-1.363l2.385,9.932a1.459,1.459,0,0,0,2.838-.681l-1.7-7.1a2.919,2.919,0,0,1,5.676-1.363l1.7,7.095a1.459,1.459,0,1,0,2.837-.682l-1.022-4.257a2.918,2.918,0,1,1,5.675-1.363l2.655,11.052a33.288,33.288,0,0,1-1.124,19.263,1.459,1.459,0,0,0-.05.845l1.227,5.108-22.7,5.452-1.227-5.108a1.455,1.455,0,0,0-.656-.9,39.753,39.753,0,0,1-15.286-16.341A7.84,7.84,0,0,1,1037.053,4304.9Z" fill="url(#linear-gradient-9)"/>
            <path id="Path_429" data-name="Path 429" d="M1069.889,4324.523a1.459,1.459,0,0,0,1.874-.866,30.122,30.122,0,0,0,1.786-12.709,1.46,1.46,0,0,0-2.911.216,27.215,27.215,0,0,1-1.614,11.486A1.459,1.459,0,0,0,1069.889,4324.523Z" fill="url(#linear-gradient-10)"/>
          </g>
        </g>
      </g>
    </g>
  </g>
</svg>
