<svg xmlns="http://www.w3.org/2000/svg" xmlns:xlink="http://www.w3.org/1999/xlink" width="1916.736" height="2199.196" viewBox="0 0 1916.736 2199.196"><defs><clipPath id="a"><rect width="162.398" height="124.187" fill="#fff"/></clipPath><clipPath id="b"><rect width="305.691" height="223.297" fill="#fff"/></clipPath><clipPath id="c"><rect width="358.23" height="285.391" transform="matrix(0.997, 0.074, -0.074, 0.997, 21.025, 0)" fill="#fff"/></clipPath></defs><g transform="translate(957.957 748.324)"><path d="M1168.531,1695.505c-82.125,148.214-271.135,201.75-418.617,118.416-102.86-58.115-159.035-166.54-155.525-276.687a1117.127,1117.127,0,0,0-380.4-685.16l-49.732-42.345c-2.2-1.841-4.372-3.691-6.552-5.571l-1.874-1.6.011-.019C-6.007,660.807-50.147,419.529,63.1,226.562a456.68,456.68,0,0,1,624.435-164.4C848.423,155.441,931.3,331.789,913.268,505.632l6.869,201.225A1117.661,1117.661,0,0,0,1070.6,1229.9l92.484,159.247c1.489,2.492,2.946,4.991,4.382,7.531A306.269,306.269,0,0,1,1168.531,1695.505Z" transform="matrix(-0.891, 0.454, -0.454, -0.891, 958.78, 902.941)" fill="rgba(174,221,205,0.2)"/><g transform="translate(-126 436)"><path d="M312.562,308.475C139.94,308.475,0,298.071,0,285.236S139.94,262,312.562,262s312.564,10.4,312.564,23.236S485.186,308.475,312.562,308.475Z" transform="translate(205.421 304.952)" fill="#556fb5" opacity="0.1"/><path d="M265.156,239.041s32.059-1.928,28.276,20.534a5.482,5.482,0,0,1-2.848,5.771s-.052-1.686-3.287-1.1a14.872,14.872,0,0,1-3.48.169,7.273,7.273,0,0,1-4.263-1.753s-9.006-3.724-12.512-18.452c0,0-2.595-3.211-2.486-4.036l5.41,2.309s-1.852,3.9-.4,7.143c0,0,.177-7,1.214-6.84.21,0,2.813,1.357,2.813,1.357s-3.185,6.8-.783,11.735c0,0-.909-8.375,1.77-11.246l3.809,2.222s-3.715,7.02-1.2,12.748c0,0-.641-8.788,2-12.207l3.456,2.7s-3.488,6.916-1.365,11.668c0,0,.279-10.229,2.114-11,0,0,3.017,2.662,3.48,3.759,0,0-2.391,5.055-.909,7.676,0,0,.909-6.816,1.686-6.851,0,0,3.008,4.516,3.319,7.582a16.4,16.4,0,0,0-2.588-8.037,9.031,9.031,0,0,1,4.6,2.385s-.463-3.194-5.341-3.471c0,0-2.527-3.43-3.151-3.64,0,0,4.852-.4,7.792.9,0,0-2.586-3.008-8.686-1.684l-3.371-2.781s6.388-.844,9.1.093c0,0-3.116-2.664-10.017-.725l-3.707-2.216s5.442-1.171,8.695-.751c0,0-3.43-1.844-9.781.151l-2.655-1.188s3.995-.783,5.157-.909,1.238-.448,1.238-.448a13.817,13.817,0,0,0-7.5.844S265.063,239.4,265.156,239.041Z" transform="translate(-35.675 278.181)" fill="#aeddcd"/><path d="M222.148,243.857s32.018-1.928,28.268,20.534a5.469,5.469,0,0,1-2.839,5.771s-.058-1.686-3.3-1.1a14.4,14.4,0,0,1-3.48.169,7.221,7.221,0,0,1-4.254-1.753s-9.015-3.724-12.521-18.452c0,0-2.586-3.209-2.527-4.036l5.41,2.309s-1.854,3.9-.4,7.145c0,0,.177-7,1.214-6.842.21,0,2.813,1.357,2.813,1.357s-3.185,6.8-.783,11.737c0,0-.909-8.374,1.779-11.248l3.806,2.224s-3.716,7.018-1.194,12.748c0,0-.649-8.788,2-12.209l3.447,2.7s-3.488,6.916-1.365,11.668c0,0,.279-10.227,2.114-11,0,0,3.017,2.664,3.48,3.759,0,0-2.391,5.055-.909,7.675,0,0,.909-6.816,1.686-6.851,0,0,3,4.516,3.319,7.585a16.445,16.445,0,0,0-2.6-8.039,9.057,9.057,0,0,1,4.609,2.385s-.472-3.194-5.349-3.471c0,0-2.527-3.43-3.151-3.631,0,0,4.852-.413,7.792.894,0,0-2.586-3.008-8.686-1.686l-3.371-2.781s6.388-.842,9.1.093c0,0-3.116-2.662-10.017-.725l-3.707-2.216s5.451-1.171,8.695-.751c0,0-3.43-1.844-9.781.154l-2.655-1.188s3.995-.783,5.165-.911,1.229-.446,1.229-.446a13.92,13.92,0,0,0-7.5.842S222.081,244.212,222.148,243.857Z" transform="translate(100.517 283.787)" fill="#aeddcd"/><path d="M246.136,255.164s32.015-1.928,28.274,20.534a5.477,5.477,0,0,1-2.848,5.771s-.058-1.686-3.285-1.1a14.948,14.948,0,0,1-3.488.169,7.262,7.262,0,0,1-4.254-1.753s-9.008-3.724-12.512-18.452c0,0-2.595-3.211-2.527-4.036L250.9,258.6s-1.844,3.9-.4,7.143c0,0,.177-7,1.223-6.84.21,0,2.8,1.357,2.8,1.357s-3.174,6.79-.775,11.735c0,0-.909-8.374,1.77-11.246l3.808,2.222s-3.715,7.02-1.2,12.748c0,0-.649-8.788,2-12.207l3.454,2.7s-3.5,6.916-1.365,11.668c0,0,.279-10.229,2.108-11,0,0,3.023,2.664,3.48,3.759,0,0-2.393,5.055-.9,7.676,0,0,.911-6.816,1.686-6.851,0,0,3.008,4.516,3.319,7.582A16.411,16.411,0,0,0,269.329,271a9.023,9.023,0,0,1,4.6,2.385s-.463-3.194-5.349-3.471c0,0-2.478-3.43-3.142-3.64,0,0,4.852-.4,7.792.9,0,0-2.595-3.008-8.686-1.642l-3.369-2.781s6.386-.842,9.1.093c0,0-3.127-2.662-10.019-.725l-3.716-2.216s5.419-1.145,8.671-.725c0,0-3.421-1.844-9.783.151l-2.644-1.188s3.984-.783,5.154-.909,1.231-.446,1.231-.446a13.794,13.794,0,0,0-7.5.842S246.043,255.519,246.136,255.164Z" transform="translate(24.597 296.948)" fill="#aeddcd"/><path d="M279.763,257.822c-12.531,0-22.689-1.716-22.689-3.835s10.158-3.832,22.689-3.832,22.689,1.716,22.689,3.832S292.294,257.822,279.763,257.822Z" transform="translate(-28.199 291.165)" fill="#6c63ff" opacity="0.1"/><path d="M236.689,262.794c-12.531,0-22.689-1.716-22.689-3.835s10.158-3.832,22.689-3.832,22.689,1.716,22.689,3.832S249.22,262.794,236.689,262.794Z" transform="translate(108.085 296.952)" fill="#6c63ff" opacity="0.1"/><path d="M118.618,94S63.1,149.583,94.442,232.066,40.717,451.708,40.717,451.708s.911-.134,2.6-.433C157.36,431.124,213.987,300.555,150.6,203.56,127.057,167.5,107.67,125.2,118.618,94Z" transform="translate(565.437 109.41)" fill="#aeddcd"/><path d="M212.942,198.266s-63.351-10.1-69.124,46.741S22,309.73,22,309.73s.786.522,2.177,1.45c95.818,62.992,187.412,40.111,173.609-43.5C192.643,236.581,193.067,205.359,212.942,198.266Z" transform="translate(569.998 229.961)" fill="#98d58b"/><path d="M212.942,198.266s-63.351-10.1-69.124,46.741S22,309.73,22,309.73s.786.522,2.177,1.45c95.818,62.992,187.412,40.111,173.609-43.5C192.643,236.581,193.067,205.359,212.942,198.266Z" transform="translate(569.998 229.961)" fill="#98d58b" opacity="0.3"/><path d="M69.656,246.521c-9.621,0-17.421-20.373-17.421-45.505s7.8-45.505,17.421-45.505,17.421,20.374,17.421,45.505S79.277,246.521,69.656,246.521Z" transform="translate(630.435 181.004)" fill="#8ed16f"/><path d="M69.656,246.521c-9.621,0-17.421-20.373-17.421-45.505s7.8-45.505,17.421-45.505,17.421,20.374,17.421,45.505S79.277,246.521,69.656,246.521Z" transform="translate(630.435 181.004)" opacity="0.3"/><path d="M43.43,273.776c-4.586-4.592-.029-16.6,10.177-26.815s22.2-14.78,26.783-10.188.029,16.6-10.177,26.813S48.016,278.368,43.43,273.776Z" transform="translate(658.253 273.508)" fill="#8ed16f"/><path d="M43.43,273.776c-4.586-4.592-.029-16.6,10.177-26.815s22.2-14.78,26.783-10.188.029,16.6-10.177,26.813S48.016,278.368,43.43,273.776Z" transform="translate(658.253 273.508)" opacity="0.3"/><path d="M103.024,0H371.6a15.022,15.022,0,0,1,15.025,15.019V551.934A15.021,15.021,0,0,1,371.6,566.952H103.024A15.021,15.021,0,0,1,88,551.934V15.019A15.022,15.022,0,0,1,103.024,0Z" transform="translate(253.495)" fill="#aeddcd"/><path d="M171.719,275.811a28.16,28.16,0,1,1,28.172-28.161A28.168,28.168,0,0,1,171.719,275.811Z" transform="translate(320.027 255.473)" fill="#fff"/><path d="M147.3,21.39a3.755,3.755,0,1,1,3.757-3.755A3.755,3.755,0,0,1,147.3,21.39Z" transform="translate(368.859 16.156)" fill="#e5e5d4"/><path d="M155.115,13.881h31.929a3.755,3.755,0,1,1,0,7.509H155.115a3.755,3.755,0,1,1,0-7.509Z" transform="translate(312.216 16.156)" fill="#e5e5d4"/><path d="M107.664,24.291H338.673a7.511,7.511,0,0,1,7.513,7.509v86.357a7.511,7.511,0,0,1-7.513,7.509H107.664a7.511,7.511,0,0,1-7.513-7.509V31.8A7.511,7.511,0,0,1,107.664,24.291Z" transform="translate(267.639 28.274)" fill="#fff"/><path d="M139.633,38.346H265.468a5.634,5.634,0,0,1,5.635,5.632V47.92a5.634,5.634,0,0,1-5.635,5.632H139.633A5.632,5.632,0,0,1,134,47.92V43.978A5.632,5.632,0,0,1,139.633,38.346Z" transform="translate(269.475 44.632)" fill="#dde3e9"/><path d="M139.633,50.058h80.76a5.634,5.634,0,0,1,5.635,5.632v3.942a5.634,5.634,0,0,1-5.635,5.632h-80.76A5.632,5.632,0,0,1,134,59.632V55.69A5.632,5.632,0,0,1,139.633,50.058Z" transform="translate(314.55 58.264)" fill="#dde3e9"/><path d="M107.664,78.079H338.673a7.511,7.511,0,0,1,7.513,7.509v63.828a7.511,7.511,0,0,1-7.513,7.511H107.664a7.511,7.511,0,0,1-7.513-7.511V85.589A7.511,7.511,0,0,1,107.664,78.079Z" transform="translate(267.639 90.88)" fill="#fff"/><path d="M139.633,89.011H265.468a5.634,5.634,0,0,1,5.635,5.632v.563a5.634,5.634,0,0,1-5.635,5.632H139.633A5.632,5.632,0,0,1,134,95.206v-.563A5.632,5.632,0,0,1,139.633,89.011Z" transform="translate(269.475 103.603)" fill="#dde3e9"/><path d="M139.633,98.12h80.76a5.634,5.634,0,0,1,5.635,5.633v.563a5.633,5.633,0,0,1-5.635,5.631h-80.76A5.631,5.631,0,0,1,134,104.315v-.563A5.632,5.632,0,0,1,139.633,98.12Z" transform="translate(314.55 114.206)" fill="#dde3e9"/><path d="M107.664,121.457H338.673a7.511,7.511,0,0,1,7.513,7.509V192.8a7.511,7.511,0,0,1-7.513,7.509H107.664a7.511,7.511,0,0,1-7.513-7.509v-63.83A7.511,7.511,0,0,1,107.664,121.457Z" transform="translate(267.639 141.369)" fill="#fff"/><path d="M139.633,132.388H265.468a5.633,5.633,0,0,1,5.635,5.633v.563a5.635,5.635,0,0,1-5.635,5.633H139.633A5.633,5.633,0,0,1,134,138.583v-.563A5.632,5.632,0,0,1,139.633,132.388Z" transform="translate(269.475 154.092)" fill="#dde3e9"/><path d="M139.633,141.5h80.76a5.635,5.635,0,0,1,5.635,5.633v.563a5.633,5.633,0,0,1-5.635,5.633h-80.76A5.632,5.632,0,0,1,134,147.692v-.563A5.633,5.633,0,0,1,139.633,141.5Z" transform="translate(314.55 164.694)" fill="#dde3e9"/><path d="M107.664,164.834H338.673a7.511,7.511,0,0,1,7.513,7.511v63.828a7.511,7.511,0,0,1-7.513,7.511H107.664a7.511,7.511,0,0,1-7.513-7.511V172.345A7.511,7.511,0,0,1,107.664,164.834Z" transform="translate(267.639 191.857)" fill="#fff"/><path d="M139.633,175.766H265.468A5.633,5.633,0,0,1,271.1,181.4v.563a5.633,5.633,0,0,1-5.635,5.633H139.633A5.632,5.632,0,0,1,134,181.959V181.4A5.631,5.631,0,0,1,139.633,175.766Z" transform="translate(269.475 204.581)" fill="#dde3e9"/><path d="M139.633,184.875h80.76a5.633,5.633,0,0,1,5.635,5.631v.565a5.633,5.633,0,0,1-5.635,5.631h-80.76A5.631,5.631,0,0,1,134,191.07v-.565A5.631,5.631,0,0,1,139.633,184.875Z" transform="translate(314.55 215.183)" fill="#dde3e9"/><g transform="translate(129.436 4.328)" clip-path="url(#a)"><path d="M280.888,60.291c-5.5-6.459-9.225-14.374-8.6-23.243,1.794-25.554,37.367-19.933,44.285-7.035s6.1,45.614-2.846,47.919c-3.566.919-11.164-1.333-18.9-5.993l4.854,34.337H271.023Z" transform="translate(-206.542 17.911)" fill="#b28b67" fill-rule="evenodd"/><path d="M294.4,47.7a5.747,5.747,0,0,0-3.259-1.035,6.151,6.151,0,0,0-5.972,5.971c0,3.152,1.489,5.59,3.616,6.624-1.136,2.22-2.276,3.831-3.616,4.123-5.159-.522-11.941-13.349-11.941-23.882C273.23,27.968,282.4,18,299.5,18c15.368,0,21.194,6.336,21.494,11.941-6.585,1.81-18.09,2.507-34.629,2.388v1.194l14.33,1.194,2.389,7.165C299.284,41.6,296.568,44.207,294.4,47.7Z" transform="translate(-211.138 16.626)" fill="#191847" fill-rule="evenodd"/></g><g transform="translate(57.788 128.515)" clip-path="url(#b)"><path d="M215.709,105.7,257.155,83q10.338-12.277,20.374-19.07c2.043-.853,5.618-1.37,2.276,4.563s-6.594,12.325-4.891,14.153,5.951-.726,7.983,2.312q2.032,3.037-21.767,9.6l-30.116,27.575Zm64.914,19.153,18.205-10q3.83-14.581,9.16-14.672c2.731-1.27-2.023,11.013,3.151,9.947s17.8-10.457,19.977-8.55c3.22,2.821.348,11.484-3.034,15.793-6.319,8.054-11.553,10.808-24.487,14.414q-10.147,2.828-21.936,11.339Z" transform="translate(-26.544 -54.708)" fill="#997659" fill-rule="evenodd"/><path d="M254.78,89.4a101.836,101.836,0,0,0,54.531-16.331l8.113,18.091c-14.247,14.14-34.281,25.758-51.8,25.266C251.82,116.037,244.763,99.339,254.78,89.4Z" transform="translate(-85.8 -43.468)" fill="#2026a2" fill-rule="evenodd"/><path d="M324.935,134.333q23.117,5.766,77.536-13.6,13.5,27.924,12.479,39.816c-31.122,16.256-57.8,23.5-79.771,23.983.7,13.04-.889,25.446-6.221,36.783-10.96,23.308-75.143,1.723-96.724,5.973-13.514-43.889,12.616-61.726,12.637-89.809.024-30.754,24.716-78.091,28.35-78.091h33.132C308.181,82.876,317.382,108.761,324.935,134.333Z" transform="translate(-136.408 -59.389)" fill="#1f28cf" fill-rule="evenodd"/></g><g transform="translate(0 284.075)" clip-path="url(#c)"><path d="M273.483,136.481,306,290.021,318.179,404.4l20.594,1.521-1.114-264.7Z" transform="translate(-100.028 -125.22)" fill="#997659" fill-rule="evenodd"/><path d="M327.019,135.811c-2.724,78.315-7.072,120.819-8.277,127.863s-8.582,54.276-41.08,135.5l21.419,1.582c40.8-77.214,56.49-123.829,61.268-134.011s19.746-51.9,42.524-125.333Z" transform="translate(-173.17 -126)" fill="#b28b67" fill-rule="evenodd"/><path d="M268.479,136.449q11.289,78.843,40.576,252.047l30.122,2.227c10.824-116.238,7.02-193.549-5.33-249.446Z" transform="translate(-95.961 -125.257)" fill="#3a5294" fill-rule="evenodd"/><path d="M322.594,135.806c-2.787,78.311-16.2,154.674-47.063,246.8l32.137,2.374c40.773-76.017,71.488-150.721,95.542-243.216Z" transform="translate(-168.896 -126.005)" fill="#556fb5" fill-rule="evenodd"/><path d="M304.344,275.018l2.59-18.967q10.153,3.8,26.175-.461,15.918,13.139,41.089,19.372h0a2.388,2.388,0,0,1,1.744,2.893,2.423,2.423,0,0,1-.074.245l-2.06,5.641L331.264,280.6l-24.818-1.833Z" transform="translate(-204.05 13.416)" fill="#df6f8e" fill-rule="evenodd"/><path d="M252.614,278.839l2.59-18.967q10.156,3.8,26.177-.461Q297.3,272.55,322.47,278.785h0a2.389,2.389,0,0,1,1.744,2.891,2.3,2.3,0,0,1-.076.244l-2.06,5.644-42.545-3.144-24.818-1.833Z" transform="translate(-40.379 17.863)" fill="#f5728e" fill-rule="evenodd"/></g><g transform="translate(552.488 74)"><path d="M927.778,72.977l0,0,21.394-21.394a2.374,2.374,0,0,1,3.362,0l21.394,21.394,0,0,4.752,4.752a2.377,2.377,0,0,1-3.362,3.362l-.7-.7v20.412a2.377,2.377,0,0,1-2.377,2.377H955.613a2.377,2.377,0,0,1-2.377-2.377V88.92h-4.755v11.887a2.377,2.377,0,0,1-2.377,2.377H929.462a2.377,2.377,0,0,1-2.377-2.377V80.395l-.7.7a2.377,2.377,0,0,1-3.362-3.362Zm4.061,25.452h11.887V86.543a2.377,2.377,0,0,1,2.377-2.377h9.509a2.377,2.377,0,0,1,2.377,2.377V98.43h11.887V75.64L950.858,56.621,931.839,75.64V98.43Z" transform="translate(-922.329 -50.881)" fill="#c5cfd6"/></g><g transform="translate(552.488 181)"><path d="M927.778,72.977l0,0,21.394-21.394a2.374,2.374,0,0,1,3.362,0l21.394,21.394,0,0,4.752,4.752a2.377,2.377,0,0,1-3.362,3.362l-.7-.7v20.412a2.377,2.377,0,0,1-2.377,2.377H955.613a2.377,2.377,0,0,1-2.377-2.377V88.92h-4.755v11.887a2.377,2.377,0,0,1-2.377,2.377H929.462a2.377,2.377,0,0,1-2.377-2.377V80.395l-.7.7a2.377,2.377,0,0,1-3.362-3.362Zm4.061,25.452h11.887V86.543a2.377,2.377,0,0,1,2.377-2.377h9.509a2.377,2.377,0,0,1,2.377,2.377V98.43h11.887V75.64L950.858,56.621,931.839,75.64V98.43Z" transform="translate(-922.329 -50.881)" fill="#c5cfd6"/></g><g transform="translate(547.488 365)"><path d="M927.778,72.977l0,0,21.394-21.394a2.374,2.374,0,0,1,3.362,0l21.394,21.394,0,0,4.752,4.752a2.377,2.377,0,0,1-3.362,3.362l-.7-.7v20.412a2.377,2.377,0,0,1-2.377,2.377H955.613a2.377,2.377,0,0,1-2.377-2.377V88.92h-4.755v11.887a2.377,2.377,0,0,1-2.377,2.377H929.462a2.377,2.377,0,0,1-2.377-2.377V80.395l-.7.7a2.377,2.377,0,0,1-3.362-3.362Zm4.061,25.452h11.887V86.543a2.377,2.377,0,0,1,2.377-2.377h9.509a2.377,2.377,0,0,1,2.377,2.377V98.43h11.887V75.64L950.858,56.621,931.839,75.64V98.43Z" transform="translate(-922.329 -50.881)" fill="#c5cfd6"/></g><g transform="translate(548.488 277)"><path d="M927.778,72.977l0,0,21.394-21.394a2.374,2.374,0,0,1,3.362,0l21.394,21.394,0,0,4.752,4.752a2.377,2.377,0,0,1-3.362,3.362l-.7-.7v20.412a2.377,2.377,0,0,1-2.377,2.377H955.613a2.377,2.377,0,0,1-2.377-2.377V88.92h-4.755v11.887a2.377,2.377,0,0,1-2.377,2.377H929.462a2.377,2.377,0,0,1-2.377-2.377V80.395l-.7.7a2.377,2.377,0,0,1-3.362-3.362Zm4.061,25.452h11.887V86.543a2.377,2.377,0,0,1,2.377-2.377h9.509a2.377,2.377,0,0,1,2.377,2.377V98.43h11.887V75.64L950.858,56.621,931.839,75.64V98.43Z" transform="translate(-922.329 -50.881)" fill="#c5cfd6"/></g></g></g></svg>