<svg xmlns="http://www.w3.org/2000/svg" width="1262.275" height="645" viewBox="0 0 1262.275 645"><g transform="translate(-346 -88.001)"><path d="M404.979,710.036h0a8.985,8.985,0,0,0,8.984,8.984H494.8V701.051H413.963a8.985,8.985,0,0,0-8.984,8.985" transform="translate(-16.589 -172.428)" fill="#cce3ff" fill-rule="evenodd"/><path d="M480.624,711.516h0a5.2,5.2,0,0,0,5.2,5.2h30.033a.216.216,0,0,0,.216-.216v-9.971a.216.216,0,0,0-.216-.216H485.826a5.2,5.2,0,0,0-5.2,5.2" transform="translate(-37.865 -173.909)" fill="#dceeff" fill-rule="evenodd"/><path d="M389.282,726.052v17.969h88.231a8.985,8.985,0,0,0,0-17.969Z" transform="translate(-12.174 -179.46)" fill="#cce3ff" fill-rule="evenodd"/><path d="M389.282,731.386v10.3H425.56a5.151,5.151,0,1,0,0-10.3Z" transform="translate(-12.174 -180.96)" fill="#dceeff" fill-rule="evenodd"/><path d="M436.423,663.924,442.162,608h17.945l5.739,55.924a9.941,9.941,0,0,1-9.888,10.955h-9.646a9.94,9.94,0,0,1-9.888-10.955" transform="translate(-25.418 -146.256)" fill="#dceeff" fill-rule="evenodd"/><path d="M346,879.095H455.248V751.053H346Z" transform="translate(0 -186.492)" fill="#dceeff" fill-rule="evenodd"/><path d="M498,879.095h72.7V751.053H498Z" transform="translate(-42.752 -186.492)" fill="#b6d4ff" fill-rule="evenodd"/><path d="M359.624,893.766h87.784V846.789H359.624Z" transform="translate(-3.832 -213.419)" fill="#cce3ff" fill-rule="evenodd"/><path d="M359.624,813.718h87.784V766.741H359.624Z" transform="translate(-3.832 -190.904)" fill="#cce3ff" fill-rule="evenodd"/><path d="M346,959.468h10.7V929.2H346Z" transform="translate(0 -236.598)" fill="#dceeff" fill-rule="evenodd"/><path d="M584.253,959.468h10.7V929.2h-10.7Z" transform="translate(-67.012 -236.598)" fill="#b6d4ff" fill-rule="evenodd"/><path d="M483.108,959.468h10.7V929.2h-10.7Z" transform="translate(-38.563 -236.598)" fill="#dceeff" fill-rule="evenodd"/><path d="M445.538,959.468h10.7V929.2h-10.7Z" transform="translate(-27.996 -236.598)" fill="#b6d4ff" fill-rule="evenodd"/><path d="M408.577,796.014a8.707,8.707,0,1,0,8.708-8.707,8.707,8.707,0,0,0-8.708,8.707" transform="translate(-17.601 -196.689)" fill="#b6d4ff" fill-rule="evenodd"/><path d="M408.577,876.061a8.707,8.707,0,1,0,8.708-8.707,8.707,8.707,0,0,0-8.708,8.707" transform="translate(-17.601 -219.203)" fill="#b6d4ff" fill-rule="evenodd"/><path d="M1990.84,590.654s2.271-11.851,10.048-11.092c16.208,1.585-3.651,53.685,29.706,57.03s36.821-48.845,36.821-48.845" transform="translate(-462.632 -138.248)" fill="none" stroke="#cce3ff" stroke-width="7"/><path d="M1992.51,546.739V851.417" transform="translate(-463.102 -129.026)" fill="none" stroke="#dceeff" stroke-width="15"/><path d="M2019.487,557.377,1820.44,471.549" transform="translate(-414.705 -107.878)" fill="none" stroke="#dceeff" stroke-width="15"/><path d="M1939.17,965.709h76.668v-3.776a8.836,8.836,0,0,0-8.833-8.841H1948.01a8.843,8.843,0,0,0-8.84,8.841Z" transform="translate(-448.099 -243.318)" fill="#dceeff" fill-rule="evenodd"/><path d="M1762.4,525.628l65.225,14.205,2.113-18.232-61.682-13.432Z" transform="translate(-398.38 -118.178)" fill="#b6d4ff" fill-rule="evenodd"/><path d="M1802.97,481.562l19.442,4.235,5.556-25.509a9.459,9.459,0,0,0-7.223-11.248l-.977-.213a9.455,9.455,0,0,0-11.248,7.227Z" transform="translate(-409.791 -101.425)" fill="#b6d4ff" fill-rule="evenodd"/><path d="M1831.952,515.716,1812.6,490.33l-14.181-3.088-28.153,15.041Z" transform="translate(-400.594 -112.292)" fill="#b6d4ff" fill-rule="evenodd"/><path d="M812.014,148.718V419.345" transform="translate(-131.072 -17.077)" fill="none" stroke="#b6d4ff" stroke-width="18"/><path d="M1002.77,148.718V419.345" transform="translate(-184.725 -17.077)" fill="none" stroke="#b6d4ff" stroke-width="18"/><path d="M636,148.718V419.345" transform="translate(-81.567 -17.077)" fill="none" stroke="#b6d4ff" stroke-width="18"/><path d="M1170.11,423.356h13.038V139.547H1170.11Z" transform="translate(-231.791 -14.498)" fill="#b6d4ff" fill-rule="evenodd"/><path d="M620.086,423.356h401.073V139.547H620.086ZM632.3,411.137H1008.94V151.766H632.3Z" transform="translate(-77.09 -14.498)" fill="#dceeff" fill-rule="evenodd"/><path d="M603.784,547.494H994.458V534.417H603.784Z" transform="translate(-72.505 -125.56)" fill="#cce3ff" fill-rule="evenodd"/><path d="M1147.33,547.494h32.739V534.417H1147.33Z" transform="translate(-225.384 -125.56)" fill="#b6d4ff" fill-rule="evenodd"/><path d="M803.72,144.6V421.148" transform="translate(-128.74 -15.918)" fill="none" stroke="#dceeff" stroke-width="16"/><path d="M994.479,144.6V421.148" transform="translate(-182.393 -15.918)" fill="none" stroke="#dceeff" stroke-width="16"/><path d="M629.561,336.982h383.417" transform="translate(-79.755 -70.029)" fill="none" stroke="#dceeff" stroke-width="16"/><path d="M662.355,535.714c0-121.774-62.919-237.288-62.919-237.288H577.914V535.714Z" transform="translate(-65.229 -59.185)" fill="#cce3ff" fill-rule="evenodd"/><path d="M662.355,98.067c0,73.9-62.919,144.006-62.919,144.006H577.914V98.067Z" transform="translate(-65.229 -2.831)" fill="#cce3ff" fill-rule="evenodd"/><path d="M605.536,305.481,567,307.153V286.6l38.538,1.673Z" transform="translate(-62.158 -55.859)" fill="#ecf6ff" fill-rule="evenodd"/><path d="M1104.39,535.714c0-121.774,60.424-237.288,60.424-237.288h20.664V535.714Z" transform="translate(-213.307 -59.185)" fill="#cce3ff" fill-rule="evenodd"/><path d="M1104.39,98.067c0,73.9,60.424,144.006,60.424,144.006h20.664V98.067Z" transform="translate(-213.307 -2.831)" fill="#cce3ff" fill-rule="evenodd"/><path d="M1175.31,305.48l36.016,1.673V286.6l-36.016,1.673Z" transform="translate(-233.254 -55.858)" fill="#ecf6ff" fill-rule="evenodd"/><path d="M528.568,108.852h527.3V98.067h-527.3Z" transform="translate(-51.35 -2.831)" fill="#cce3ff" fill-rule="evenodd"/><path d="M927.081,475.336h0a7.6,7.6,0,0,1-7.577-7.576v-67.4a7.577,7.577,0,0,1,15.153,0v67.4a7.6,7.6,0,0,1-7.576,7.576" transform="translate(-161.305 -85.724)" fill="#cce3ff" fill-rule="evenodd"/><path d="M901.35,441.21h17.332a4.09,4.09,0,0,0,4.078-4.077v-.2a4.09,4.09,0,0,0-4.078-4.077H901.35a4.089,4.089,0,0,0-4.077,4.077v.2a4.09,4.09,0,0,0,4.077,4.077" transform="translate(-155.052 -96.994)" fill="#cce3ff" fill-rule="evenodd"/><path d="M902.221,435.017h0a4.962,4.962,0,0,1-4.947-4.948V415.782a4.962,4.962,0,0,1,4.947-4.948h0a4.962,4.962,0,0,1,4.947,4.948v14.287a4.962,4.962,0,0,1-4.947,4.948" transform="translate(-155.052 -90.801)" fill="#cce3ff" fill-rule="evenodd"/><path d="M950.85,471.4H934.6a4.09,4.09,0,0,1-4.077-4.077V464.86a4.09,4.09,0,0,1,4.077-4.077H950.85a4.09,4.09,0,0,1,4.077,4.077v2.458a4.09,4.09,0,0,1-4.077,4.077" transform="translate(-164.403 -104.85)" fill="#cce3ff" fill-rule="evenodd"/><path d="M955.689,465.916h.687a4.408,4.408,0,0,0,4.394-4.4V445.7a4.408,4.408,0,0,0-4.394-4.4h-.687a4.408,4.408,0,0,0-4.394,4.4v15.825a4.408,4.408,0,0,0,4.394,4.4" transform="translate(-170.247 -99.37)" fill="#cce3ff" fill-rule="evenodd"/><path d="M902.335,487.642h42.583l-4.5,33.55H906.831Z" transform="translate(-156.476 -112.404)" fill="#b6d4ff" fill-rule="evenodd"/><path d="M1030.025,499.536a15.515,15.515,0,1,0,21.267-5.4,15.517,15.517,0,0,0-21.267,5.4" transform="translate(-191.776 -113.617)" fill="#b6d4ff" fill-rule="evenodd"/><path d="M1037.915,480.368c1.739,5.111,7.317,7.834,7.317,7.834s2.753-5.562,1.013-10.673-7.317-7.835-7.317-7.835-2.753,5.563-1.014,10.674" transform="translate(-194.448 -107.356)" fill="#b6d4ff" fill-rule="evenodd"/><path d="M536.255,100.629l-12.628,12.628L511,100.629,523.628,88Z" transform="translate(-46.408 0)" fill="#cce3ff" fill-rule="evenodd"/><path d="M1269.9,102.443l-12.621,12.628-12.628-12.628,12.628-12.628Z" transform="translate(-252.757 -0.51)" fill="#cce3ff" fill-rule="evenodd"/><path d="M1546.359,756.188h0a7.831,7.831,0,0,1-7.827,7.831H1476.57V748.357h61.962a7.831,7.831,0,0,1,7.827,7.831" transform="translate(-317.987 -185.733)" fill="#cce3ff" fill-rule="evenodd"/><path d="M1504.112,757.479h0a4.531,4.531,0,0,1-4.528,4.534h-22.921a.1.1,0,0,1-.093-.095v-8.879a.094.094,0,0,1,.093-.093h22.921a4.53,4.53,0,0,1,4.528,4.533" transform="translate(-317.987 -187.024)" fill="#dceeff" fill-rule="evenodd"/><path d="M1556.3,770.148V785.81H1488.6a7.831,7.831,0,0,1,0-15.662Z" transform="translate(-319.168 -191.862)" fill="#cce3ff" fill-rule="evenodd"/><path d="M1573.265,774.8v8.98h-27.7a4.49,4.49,0,0,1,0-8.98Z" transform="translate(-336.132 -193.17)" fill="#dceeff" fill-rule="evenodd"/><path d="M1849.25,638.042V876.883" transform="translate(-422.808 -154.706)" fill="none" stroke="#cce3ff" stroke-width="24"/><path d="M1662.95,638.042V876.883" transform="translate(-370.409 -154.706)" fill="none" stroke="#cce3ff" stroke-width="24"/><path d="M1783.02,828.167H1665.19V721a62.023,62.023,0,0,1,62.013-62.032,55.828,55.828,0,0,1,55.817,55.838Z" transform="translate(-371.039 -160.593)" fill="#dceeff" fill-rule="evenodd"/><path d="M1644.14,638.042V876.883" transform="translate(-365.118 -154.706)" fill="none" stroke="#dceeff" stroke-width="24"/><path d="M1830.73,638.042V876.883" transform="translate(-417.599 -154.706)" fill="none" stroke="#dceeff" stroke-width="24"/><path d="M1751.427,785.57H1620.15a13.8,13.8,0,0,1,0-27.609h131.277a13.8,13.8,0,0,1,0,27.609" transform="translate(-354.489 -188.435)" fill="#ecf6ff" fill-rule="evenodd"/><path d="M1777.09,785.57h-65.7a13.8,13.8,0,0,1,0-27.609h65.7a13.8,13.8,0,0,1,0,27.609" transform="translate(-380.152 -188.435)" fill="#e3f1ff" fill-rule="evenodd"/><path d="M1443.32,865.567h134.871V791.942H1443.32Z" transform="translate(-308.635 -197.992)" fill="#b6d4ff" fill-rule="evenodd"/><path d="M1452.51,638.042V876.883" transform="translate(-311.22 -154.706)" fill="none" stroke="#cce3ff" stroke-width="24"/><path d="M1266.21,638.042V876.883" transform="translate(-258.821 -154.706)" fill="none" stroke="#cce3ff" stroke-width="24"/><path d="M1386.273,828.167H1268.45V721a62.017,62.017,0,0,1,62.006-62.032,55.828,55.828,0,0,1,55.817,55.838Z" transform="translate(-259.451 -160.593)" fill="#dceeff" fill-rule="evenodd"/><path d="M1686.457,877.6h-50.951a17.341,17.341,0,0,1-17.336-17.345V791.942h85.63v68.315a17.342,17.342,0,0,1-17.343,17.345" transform="translate(-357.814 -197.992)" fill="#cce3ff" fill-rule="evenodd"/><path d="M1247.4,638.042V876.883" transform="translate(-253.53 -154.706)" fill="none" stroke="#dceeff" stroke-width="24"/><path d="M1433.98,638.042V876.883" transform="translate(-306.008 -154.706)" fill="none" stroke="#dceeff" stroke-width="24"/><path d="M1737.31,866.813h66.7V796.375h-66.7Z" transform="translate(-391.324 -199.239)" fill="#b6d4ff" fill-rule="evenodd"/><path d="M1537.058,721.236a12.413,12.413,0,1,1-17.012-4.32,12.415,12.415,0,0,1,17.012,4.32" transform="translate(-328.508 -176.399)" fill="#cce3ff" fill-rule="evenodd"/><path d="M1528.142,706.15c-1.395,4.09-5.858,6.27-5.858,6.27s-2.2-4.451-.805-8.542,5.851-6.27,5.851-6.27,2.207,4.453.812,8.542" transform="translate(-330.488 -171.46)" fill="#cce3ff" fill-rule="evenodd"/><path d="M1542.08,242.5H1617.4V130.8H1542.08Z" transform="translate(-336.413 -12.038)" fill="#dceeff" fill-rule="evenodd"/><path d="M1542.08,242.5H1617.4V130.8H1542.08Z" transform="translate(-336.413 -12.038)" fill="none" stroke="#dceeff" stroke-width="9" fill-rule="evenodd"/><path d="M1444.8,242.5h141.16V130.8H1444.8Z" transform="translate(-309.051 -12.038)" fill="#fff" fill-rule="evenodd"/><path d="M1444.8,242.5h141.16V130.8H1444.8Z" transform="translate(-309.051 -12.038)" fill="none" stroke="#dceeff" stroke-width="9" fill-rule="evenodd"/><path d="M1462.88,235.1h115.171V147.706H1462.88Z" transform="translate(-314.137 -16.793)" fill="#fff" fill-rule="evenodd"/><path d="M1462.88,235.1h115.171V147.706H1462.88Z" transform="translate(-314.137 -16.793)" fill="none" stroke="#dceeff" stroke-width="9" fill-rule="evenodd"/><path d="M1503.41,222.249H1560.9v-45.17H1503.41Z" transform="translate(-325.536 -25.054)" fill="#b6d4ff" fill-rule="evenodd"/><path d="M1027.018,434.028a52.065,52.065,0,0,1-1.121,10.811c-4.974,23.764-26.026,31.873-51.243,31.873-28.916,0-52.36-13.731-52.36-42.684a52.362,52.362,0,1,1,104.724,0" transform="translate(-162.09 -82.581)" fill="#f6b852"/><path d="M1004.13,502.566s-6.29.185-8.969-1.28l8.631,5.426Z" transform="translate(-182.585 -116.242)" fill="#cf3e83" fill-rule="evenodd"/><path d="M996.157,447.7c6.124,5.273,15.187,10.176,25.824,13.51-.676,7.216-2.925,19.654-9.71,24.171-3.206,2.134-9.042,2.4-14.008,2.109l-1.143,14.137-14.776-5.794s3.688-17.182,1.714-20.34c-2.653-4.254-9.749-5.625-9.757-11.5a4.559,4.559,0,0,1,4.767-4.762c5.039-.007,4.321,6.037,4.321,6.037,4.635,1.805,9.36-10.56,12.768-17.566Z" transform="translate(-176.717 -101.171)" fill="#5e93d1"/><path d="M1026.425,472.129l3.6,8.733-4.176-.084Z" transform="translate(-191.216 -108.041)" fill="#2437a8" fill-rule="evenodd"/><path d="M1019.653,471.371c-.086,1.745-1.114,3.1-2.286,3.036s-2.056-1.537-1.969-3.281,1.114-3.1,2.293-3.037,2.056,1.537,1.962,3.282" transform="translate(-188.275 -106.904)" fill="#1d1d23" fill-rule="evenodd"/><path d="M1035,470.983c-.093,1.744-1.114,3.1-2.293,3.036s-2.048-1.537-1.962-3.281,1.114-3.1,2.293-3.036,2.048,1.537,1.962,3.281" transform="translate(-192.592 -106.795)" fill="#1d1d23" fill-rule="evenodd"/><path d="M1022.291,489.139s-2.717.878-5.441-2.155" transform="translate(-188.685 -112.219)" fill="none" stroke="#24242b" stroke-width="3"/><path d="M1004.112,502.565s-6.285.186-8.966-1.279l8.635,5.426Z" transform="translate(-182.58 -116.242)" fill-rule="evenodd" opacity="0.399"/><path d="M990.063,521.952a27.239,27.239,0,0,0-6.842-7.725l-17.9-.865s1.524,3.933,3.138,8.991c3.19,10,10.755,12.245,17.353,12.234C991.968,534.577,994.066,528.729,990.063,521.952ZM1034.151,551c-.323-3.149-.446-6.915.553-8.264,1.833-2.476,10.9-9.96,10.9-9.96l.482,6.246,2.149-7.332a29.624,29.624,0,0,1,4.672,1.91,33.554,33.554,0,0,1,4.248,2.787h0c.237.176.446.327.6.443,1.222.868-2.322,14.214-4.852,16.615-1.732,1.649-6.843,2.927-9.883,3.566-5.793,9.37-21.239,32.784-29.77,30.852-8.869-2.006-17.092-33.032-17.092-33.032l14.95-7.292,6.512,20.09ZM932.538,618.99l3.64,9.318a50.525,50.525,0,0,1,.862,5.235c.009.076.017.152.024.227l.017.152a23.149,23.149,0,0,0,2.262,8.436c1.307,2.964-2.922,2.079-4.122.423a12.543,12.543,0,0,1-1.185-3.241c-.68-2.4-1.405-4.973-2.713-4.083-2.036,1.386-2.649,8.432-2.194,15.086a2.513,2.513,0,0,1-1.172,2.2c-.841.487-2.067-3.63-2.067-3.63a1.265,1.265,0,0,1-1.78.842c-.474-.214-1.886-3.015-1.886-3.015a12.445,12.445,0,0,1-1.668-2.922c-1.015-2.722-1.844-7.773-1.648-9.258.461-3.5,1.5-9.4,2.865-12.674-.806-8.4-3.895-42.15-2.191-48.56,1.95-7.335,5.772-17.274,5.772-17.274l14.664,8.635-6.287,13.436Z" transform="translate(-161.129 -119.638)" fill="#e576c6" fill-rule="evenodd"/><path d="M1099.435,537.026c-1.351-.775-2.638-1.355-3.27-1.207-1.1.257.92,3.15,2.386,5.056l-.015.073c-2.372.957-5.484,2.375-5.987,3.413-.352.724,1.013.962,2.7.994-1.552.747-2.911,1.554-3.227,2.209-.4.84,1.488,1.025,3.529,1-1.8.821-3.486,1.755-3.845,2.5-.453.944,2,1.06,4.3.974l-.589,2.58a1.689,1.689,0,0,1-1.711,1.3l-8.8-.386a1.675,1.675,0,0,1-1.56-2.053l6.231-27.287a1.677,1.677,0,0,1,1.711-1.3l8.8.385a1.68,1.68,0,0,1,1.56,2.054l-2.214,9.7Z" transform="translate(-207.375 -122.878)" fill="#020101" fill-rule="evenodd"/><path d="M1102.018,538.168c-1.869-1.219-4.147-2.527-5.06-2.314-1.107.259.956,3.2,2.429,5.106-2.386.957-5.542,2.389-6.045,3.435-.352.725,1.013.962,2.7.994-1.552.747-2.911,1.554-3.227,2.209-.4.84,1.488,1.025,3.529,1-1.8.821-3.486,1.755-3.845,2.5-.6,1.25,3.9,1.049,6.368.848l-.633,2.794a1.689,1.689,0,0,1-1.711,1.3l-8.8-.385a1.676,1.676,0,0,1-1.56-2.054l6.231-27.287a1.678,1.678,0,0,1,1.711-1.3l8.8.385a1.68,1.68,0,0,1,1.56,2.054Z" transform="translate(-208.168 -122.913)" fill="#5e93d1"/><path d="M1097.347,529.319c-.208.894-.733,1.529-1.179,1.417s-.64-.927-.431-1.821.733-1.529,1.179-1.418.64.927.431,1.821" transform="translate(-210.85 -123.611)" fill="#020101" fill-rule="evenodd"/><path d="M1095.917,535.757c-.208.894-.733,1.53-1.179,1.418s-.64-.927-.431-1.821.726-1.529,1.171-1.418.64.927.438,1.821" transform="translate(-210.447 -125.421)" fill="#020101" fill-rule="evenodd"/><path d="M972.179,513.647l-5.9-.285s1.524,3.933,3.138,8.991c3.19,10,10.756,12.245,17.354,12.234,6.152-.009,8.251-5.857,4.248-12.635a27.669,27.669,0,0,0-6.684-7.608c7.777.526,12.621,1.5,17.106,5.715,8.539,8.018,15.453,22.8,18.292,37.4l-15.6,6.971-5.556,21.5-40.834-.623a43.646,43.646,0,0,0-.523-9.628,32.323,32.323,0,0,0-5.287-13l-4.107,6.25-25.543-15.076c8.362-15.266,20.026-31.007,27.8-36.016a27.456,27.456,0,0,1,15.439-4.477C967.757,513.34,970,513.492,972.179,513.647Z" transform="translate(-162.086 -119.637)" fill="#5e93d1"/><path d="M1028.68,596.549c1.559-19.832,11.873-24.513,4.1-46.754" transform="translate(-192.013 -129.885)" fill="none" stroke="#000" stroke-width="3" opacity="0.203"/><path d="M1001.4,514.227a27.239,27.239,0,0,1,6.842,7.725c4,6.778,1.912,12.625-4.248,12.635-6.6.011-14.164-2.235-17.353-12.234-1.614-5.058-3.138-8.991-3.138-8.991" transform="translate(-179.305 -119.638)" fill="none" stroke="#000" stroke-width="3" opacity="0.202"/><path d="M974.416,562.663l-9.475,14.371" transform="translate(-174.085 -133.505)" fill="none" stroke="#000" stroke-width="3" opacity="0.203"/><path d="M998.408,959.723l1.171-10.2-10.256-4.767-1.064,29.219,40.041-.07C1020.128,965.424,998.408,959.723,998.408,959.723ZM938.8,946.734l-11.347.247.114,12.987a20.211,20.211,0,0,0-14.742,14.006h28.465l-1.233-14.585Z" transform="translate(-159.426 -240.973)" fill="#0d0b6d" fill-rule="evenodd"/><path d="M945.764,946.989l-11.069-3.894-1.483,15.827,12.49.579Zm59.816,3.8-10.76-4.281-.331,12.346,11,.4Z" transform="translate(-165.161 -240.506)" fill="#e576c6" fill-rule="evenodd"/><path d="M929.084,856.326c.508-15.825,3.784-115.788,7.151-175.26,2.334-41.222,19.8-63.917,23.072-67.838h41.6c.079.526,5.678,40.215,6.706,123.26.92,74.372-.029,115.024-.151,119.8v0l1.33,0,.007,6.4-21.541.035-.014-6.4H988L977.054,726.18l-3.277-38.952L948.9,856.293h1.075l-.375,6.4-22.306.036.375-6.4,1.412,0Z" transform="translate(-163.497 -147.727)" fill="#2f2f3d"/><path d="M991.966,701.278l4.476-38.1-1.2,77.054Z" transform="translate(-181.686 -161.775)" fill="#0a0a0f" fill-rule="evenodd" opacity="0.398"/></g></svg>