<svg xmlns="http://www.w3.org/2000/svg" width="765" height="1510" viewBox="0 0 765 1510"><g transform="translate(-687 -994)"><g transform="translate(1352 994)" fill="none" stroke="#172a3a" stroke-width="3" stroke-dasharray="30"><circle cx="50" cy="50" r="50" stroke="none"/><circle cx="50" cy="50" r="48.5" fill="none"/></g><path d="M50,0A50,50,0,1,1,0,50,50,50,0,0,1,50,0Z" transform="translate(1352 1401)" fill="#33a568"/><path d="M50,0A50,50,0,1,1,0,50,50,50,0,0,1,50,0Z" transform="translate(687 1401)" fill="#33a568"/><circle cx="50" cy="50" r="50" transform="translate(687 1912)" fill="#33a568"/><path d="M50,0A50,50,0,1,1,0,50,50,50,0,0,1,50,0Z" transform="translate(687 2404)" fill="#33a568"/><line y2="307" transform="translate(1402.5 1094.5)" fill="none" stroke="#172a3a" stroke-width="3"/><line x1="565" transform="translate(787.5 1450.5)" fill="none" stroke="#172a3a" stroke-width="3"/><line y2="411" transform="translate(737.5 1501.5)" fill="none" stroke="#172a3a" stroke-width="3"/><line y2="392" transform="translate(737.5 2012.5)" fill="none" stroke="#172a3a" stroke-width="3"/><g transform="translate(1367 1416.986)"><g transform="translate(0 0.014)"><g transform="translate(0 0)"><path d="M384.155,335.9a1.155,1.155,0,0,0,0,1.633l2.45,2.45a1.155,1.155,0,0,0,1.633-1.633l-2.449-2.45A1.157,1.157,0,0,0,384.155,335.9Z" transform="translate(-331.303 -289.653)" fill="#fff"/><path d="M411.458,114.437v11.069h-4.619v-5.773a1.155,1.155,0,0,0-2.309,0v6.928a1.154,1.154,0,0,0,1.155,1.155h6.928a1.154,1.154,0,0,0,1.155-1.155v-9.914l.338.338a1.154,1.154,0,0,0,1.633-1.633l-2.308-2.308,0,0-10.391-10.391a1.154,1.154,0,1,0-1.633,1.633Z" transform="translate(-346.077 -88.328)" fill="#fff"/><path d="M127.464,113.144l0,0L117.07,102.751a1.153,1.153,0,0,0-1.633,0l-10.391,10.391,0,0-2.308,2.308a1.154,1.154,0,0,0,1.633,1.633l.338-.338v9.914a1.154,1.154,0,0,0,1.155,1.155h8.083a1.154,1.154,0,0,0,1.155-1.155v-5.773h2.309v5.773a1.154,1.154,0,0,0,1.155,1.155h8.083a1.154,1.154,0,0,0,1.155-1.155v-9.914l.338.338a1.154,1.154,0,1,0,1.633-1.633Zm-1.972,12.362h-5.774v-5.773a1.154,1.154,0,0,0-1.155-1.155h-4.619a1.154,1.154,0,0,0-1.155,1.155v5.773h-5.774V114.437l9.238-9.237,9.238,9.237v11.069Z" transform="translate(-88.302 -88.328)" fill="#fff"/><path d="M57.227,34.147A23.093,23.093,0,1,0,80.321,57.24,23.12,23.12,0,0,0,57.227,34.147Zm0,43.877A20.784,20.784,0,1,1,78.012,57.24,20.808,20.808,0,0,1,57.227,78.024Z" transform="translate(-29.514 -29.528)" fill="#fff"/><path d="M349.645,377.218a1.154,1.154,0,0,0-.816-.338h0a1.164,1.164,0,0,0-.818.341l-3.256,3.275a1.154,1.154,0,0,0,1.637,1.628l2.44-2.453,7.273,7.272a3.464,3.464,0,0,1-4.9,4.9l-13.683-13.683a1.155,1.155,0,1,0-1.633,1.633l13.683,13.683a5.773,5.773,0,1,0,8.164-8.165Z" transform="translate(-289.429 -325.162)" fill="#fff"/><path d="M55.426,27.726A27.713,27.713,0,1,0,27.713,55.438,27.745,27.745,0,0,0,55.426,27.726Zm-27.713,25.4a25.4,25.4,0,1,1,25.4-25.4A25.431,25.431,0,0,1,27.713,53.128Z" transform="translate(0 -0.014)" fill="#fff"/></g></g></g><g transform="translate(-5 1913.76)"><rect width="4.776" height="2.388" transform="translate(731.357 18.822)" fill="#fff"/><path d="M801.851,116.674a.722.722,0,0,1,.313-.145,22.158,22.158,0,0,0,4.1-1.409c.122-.051.244-.1.366-.147a10.722,10.722,0,1,0-4.776,1.7Zm-9.463-10.688a8.358,8.358,0,1,1,8.358,8.358A8.358,8.358,0,0,1,792.388,105.986Z" transform="translate(-67.18 -67.914)" fill="#fff"/><rect width="9.552" height="2.388" transform="translate(720.096 63.405)" fill="#fff"/><rect width="4.776" height="2.388" transform="translate(720.05 58.588)" fill="#fff"/><path d="M827.48,146.083h2.348v-2.073h2.3v-2.02h-2.3v-.817h2.361v-2.02h-2.361v-2.073h-2.083v2.073h-2.6l-1.285-2.073h-2.361v2.073h-1.931v2.02h1.931v.817h-1.99v2.02h1.99v2.073h2.1v-2.073h2.6Zm.265-4.91v.817H826.9l-.506-.817Zm-4.154.817v-.817h.84l.507.817Z" transform="translate(-92.172 -103.484)" fill="#fff"/><path d="M774.5,59.059l-3.432-3.3,0,0L756.949,42.181l.711-.062c.006-.029.012-.058.018-.088l-.121.041V21.259A6.149,6.149,0,0,0,751.3,15.24H716.258A6.149,6.149,0,0,0,710,21.259V74.223a6.149,6.149,0,0,0,6.258,6.019h19.854c-.01-.449,0-.9.006-1.353q-.075-.527-.147-1.054H716.258a3.685,3.685,0,0,1-3.755-3.611V21.259a3.685,3.685,0,0,1,3.755-3.611H751.3a3.685,3.685,0,0,1,3.754,3.611V40.534a1.765,1.765,0,0,0-1.876.356l-.627.6V23.666a1.228,1.228,0,0,0-1.251-1.2H716.258a1.228,1.228,0,0,0-1.251,1.2v48.15a1.228,1.228,0,0,0,1.251,1.2h19.234c-.034-.8-.038-1.6,0-2.407H717.509V24.87h32.539V43.6q.2-.054.412-.1L737.725,55.754l0,0-3.433,3.3a1.606,1.606,0,0,0,0,2.335,1.764,1.764,0,0,0,2.428,0l.5-.484V75.092a1.685,1.685,0,0,0,1.717,1.652h12.021a1.685,1.685,0,0,0,1.717-1.652V66.833h3.435v8.259a1.685,1.685,0,0,0,1.717,1.652h12.021a1.685,1.685,0,0,0,1.717-1.652V60.911l.5.484a1.765,1.765,0,0,0,2.428,0A1.606,1.606,0,0,0,774.5,59.059ZM768.131,73.44h-8.586V65.182a1.685,1.685,0,0,0-1.717-1.652h-6.869a1.685,1.685,0,0,0-1.717,1.652V73.44h-8.586V57.607l13.738-13.214,13.738,13.214Z" transform="translate(0 0)" fill="#fff"/></g><g transform="translate(112 1448)"><path d="M656.879,7.341h-6.724V-5.936h1.121A1.114,1.114,0,0,1,652.4-4.83V-.4h2.241V-4.83a3.341,3.341,0,0,0-3.362-3.319h-1.121v-2.213a4.455,4.455,0,0,0-4.483-4.426,4.455,4.455,0,0,0-4.483,4.426v17.7h-5.6V5.128a1.114,1.114,0,0,0-1.121-1.106h-4.61V-9.554l.489.483a1.675,1.675,0,0,0,1.179.483,1.675,1.675,0,0,0,1.18-.483,1.63,1.63,0,0,0,0-2.329l-3.335-3.292,0,0L614.352-29.517a1.682,1.682,0,0,0-2.359,0L596.98-14.7l0,0L593.642-11.4a1.63,1.63,0,0,0,0,2.329,1.682,1.682,0,0,0,2.359,0l.489-.483V4.022h-2.369A1.114,1.114,0,0,0,593,5.128V10.66a3.341,3.341,0,0,0,3.362,3.319h6.724V33.894A1.114,1.114,0,0,0,604.207,35h52.672A1.114,1.114,0,0,0,658,33.894V8.447A1.114,1.114,0,0,0,656.879,7.341Zm-13.448-17.7a2.227,2.227,0,0,1,2.241-2.213,2.227,2.227,0,0,1,2.241,2.213v2.213h-4.483Zm0,4.426h1.121v2.213h2.241V-5.936h1.121V22.83h-4.483Zm3.79,30.979L645.672,28.1l-1.549-3.058Zm-47.395-37.89,13.346-13.176,13.346,13.176V2.94h-8.342V-5.295a1.657,1.657,0,0,0-1.668-1.647h-6.673a1.657,1.657,0,0,0-1.668,1.647V2.94h-8.342Zm15.014,9.2V4.022H611.5V-3.648ZM603.086,8.447v3.319h-6.724a1.114,1.114,0,0,1-1.121-1.106V6.234h38.1V7.341H604.207A1.114,1.114,0,0,0,603.086,8.447Zm52.672,24.34H605.328V9.553H641.19V23.936a1.1,1.1,0,0,0,.112.494l3.362,6.638a1.127,1.127,0,0,0,2.006,0l3.362-6.638a1.094,1.094,0,0,0,.123-.494V9.553h5.6Z" transform="translate(0 0)" fill="#fff"/><path d="M872.732,387.2a4.062,4.062,0,0,0-2.613.914,1.887,1.887,0,0,1-2.511,0A4.048,4.048,0,0,0,865,387.2v2.32a1.8,1.8,0,0,1,1.254.478,4.183,4.183,0,0,0,5.221,0,1.892,1.892,0,0,1,2.514,0,4.058,4.058,0,0,0,2.613.914v-2.32a1.806,1.806,0,0,1-1.258-.478A4.062,4.062,0,0,0,872.732,387.2Z" transform="translate(-234.176 -359.854)" fill="#fff"/><rect width="4.641" height="2.32" transform="translate(620.939 15.018) rotate(-0.07)" fill="#fff"/><rect width="9.281" height="2.32" transform="translate(627.542 15.004)" fill="#fff"/><rect width="6.961" height="2.32" transform="translate(629.831 19.426) rotate(-0.075)" fill="#fff"/><rect width="4.641" height="2.32" transform="translate(614.237 15.011) rotate(-0.07)" fill="#fff"/><path d="M714.439,327.922H701.107v2.32h13.326v.007h6.961v-2.32h-6.956Z" transform="translate(-93.193 -308.507)" fill="#fff"/><path d="M714.439,359.953H701.107v2.32h13.326v.007h6.961v-2.32h-6.956Z" transform="translate(-93.193 -336.561)" fill="#fff"/><rect width="4.641" height="2.32" transform="translate(608.1 15.011) rotate(-0.07)" fill="#fff"/></g><g transform="translate(702 2420.947)"><path d="M55.582,38.463c0-.03.008-.064.011-.091.565-3.3,0-15.258-.86-18.02-.917-2.966-2.123-6.29-4.739-8.4a15.677,15.677,0,0,0-3.627-6.295A14.431,14.431,0,0,0,25.3,5.581,16.1,16.1,0,0,0,21.727,21.7l-2.479,2.576,1.889,1.992L21.1,26.3l-4.014.18.467,3.51-.5.52-4.169.152.471,3.691-.414.432-3.733-.3.317,3.853-.7.722-3.7.045-.652,4.481L3.4,44.707.521,43.515,0,48.24l1.034,1.09.781.822L22.951,28.176,24,29.288,2.869,51.267l3.16,3.33L27.165,32.622l1.234,1.3,2.477-2.573a14.333,14.333,0,0,0,12.691-1.437c.379,1,.773,2.018,1.167,3.03.295.751.564,1.438.795,2.046.2.525.391,1.18.6,1.877.173.59.354,1.2.554,1.806L34.476,43.5l5.615,1.84L35.852,59.511l19.963,6.541,4.24-14.175L65,53.5ZM43.568,14.495a3.914,3.914,0,0,1-2.362,1.179,4.078,4.078,0,0,1,.605-2.405,4.4,4.4,0,0,1,2.929-1.943A4.283,4.283,0,0,1,43.568,14.495ZM37.9,8.525a3.893,3.893,0,0,1,5.683.02,4.174,4.174,0,0,1,.854,1.35,5.784,5.784,0,0,0-3.715,2.47,5.446,5.446,0,0,0-.883,3.242,3.945,3.945,0,0,1-1.964-1.129A4.357,4.357,0,0,1,37.9,8.525Zm9.544,27.911c-.216-.739-.421-1.432-.633-1.992-.233-.61-.505-1.3-.8-2.057-.378-.971-.817-2.09-1.268-3.287a14.761,14.761,0,0,0,1.55-1.393,16.008,16.008,0,0,0,4.244-13.184A19.767,19.767,0,0,1,53.417,20.8c.672,2.175,1.18,11.408.961,15.744l-.463-.738L47.97,38.151C47.779,37.577,47.6,36.984,47.447,36.436Zm6.278,4.351a2.067,2.067,0,0,1-.375.676,1.787,1.787,0,0,1-1.336.468,4.1,4.1,0,0,1-2.617-.98,2.568,2.568,0,0,1-.168-.2l3.585-1.419Zm4.51,7.452L54,62.415,39.318,57.609l4.239-14.178-.6-.194,4.914-1.946a4.475,4.475,0,0,0,.58.722,5.412,5.412,0,0,0,3.557,1.367,3.048,3.048,0,0,0,2.337-.919,2.622,2.622,0,0,0,.217-.326L58.431,48.3Z" transform="translate(0 0)" fill="#fff"/></g></g></svg>