<svg xmlns="http://www.w3.org/2000/svg" xmlns:xlink="http://www.w3.org/1999/xlink" width="320.104" height="431.432" viewBox="0 0 320.104 431.432">
  <defs>
    <linearGradient id="linear-gradient" x1="0.845" y1="2.861" x2="1.528" y2="-2.167" gradientUnits="objectBoundingBox">
      <stop offset="0" stop-color="#0a7e7e"/>
      <stop offset="1" stop-color="#172a3a"/>
    </linearGradient>
    <linearGradient id="linear-gradient-2" x1="0.936" y1="0.222" x2="-0.33" y2="0.785" gradientUnits="objectBoundingBox">
      <stop offset="0" stop-color="#29abe2"/>
      <stop offset="0.066" stop-color="#4abae7"/>
      <stop offset="0.155" stop-color="#70cced"/>
      <stop offset="0.252" stop-color="#90dcf3"/>
      <stop offset="0.355" stop-color="#abe9f7"/>
      <stop offset="0.468" stop-color="#bff2fa"/>
      <stop offset="0.595" stop-color="#cdf9fd"/>
      <stop offset="0.749" stop-color="#d6fdfe"/>
      <stop offset="1" stop-color="#d9ffff"/>
    </linearGradient>
    <linearGradient id="linear-gradient-3" x1="-0.048" y1="0.535" x2="3.034" y2="0.288" xlink:href="#linear-gradient"/>
    <linearGradient id="linear-gradient-4" x1="-1.159" y1="0.624" x2="1.924" y2="0.377" xlink:href="#linear-gradient"/>
    <linearGradient id="linear-gradient-5" x1="-2.27" y1="0.713" x2="0.813" y2="0.466" xlink:href="#linear-gradient"/>
    <linearGradient id="linear-gradient-6" x1="-2.917" y1="-25.029" x2="-2.917" y2="-25.025" gradientUnits="objectBoundingBox">
      <stop offset="0" stop-color="gray" stop-opacity="0.251"/>
      <stop offset="0.54" stop-color="gray" stop-opacity="0.122"/>
      <stop offset="1" stop-color="gray" stop-opacity="0.102"/>
    </linearGradient>
    <linearGradient id="linear-gradient-7" x1="-11.563" y1="-203.846" x2="-11.563" y2="-203.812" xlink:href="#linear-gradient-6"/>
    <filter id="Ellipse_59" x="90.923" y="45.48" width="35.716" height="35.716" filterUnits="userSpaceOnUse">
      <feOffset input="SourceAlpha"/>
      <feGaussianBlur stdDeviation="2.5" result="blur"/>
      <feFlood flood-color="#fff" flood-opacity="0.749"/>
      <feComposite operator="in" in2="blur"/>
      <feComposite in="SourceGraphic"/>
    </filter>
    <linearGradient id="linear-gradient-8" x1="-1.204" y1="2.505" x2="-0.204" y2="2.505" xlink:href="#linear-gradient"/>
    <linearGradient id="linear-gradient-9" x1="-0.082" y1="0.497" x2="0.903" y2="0.497" xlink:href="#linear-gradient"/>
    <linearGradient id="linear-gradient-10" x1="-1.631" y1="0.87" x2="-0.057" y2="0.87" xlink:href="#linear-gradient"/>
  </defs>
  <g id="Group_227" data-name="Group 227" transform="translate(0 -2792)">
    <g id="Group_225" data-name="Group 225" transform="translate(0 2792)">
      <g id="Group_224" data-name="Group 224" transform="translate(0 0)">
        <path id="Path_430" data-name="Path 430" d="M674.578,4026.4h22.605l-38.571-33.477a33.243,33.243,0,0,0-32.821-38.409H610.706a162.21,162.21,0,0,0-162.789-2.721l-70.837,39.567V4362.62l228.895-127.854a161.981,161.981,0,0,0,68.6-208.363Z" transform="translate(-377.079 -3931.187)" fill="#73ceee" opacity="0.1"/>
        <g id="Group_212" data-name="Group 212" transform="translate(0 28.178)">
          <circle id="Ellipse_56" data-name="Ellipse 56" cx="2.101" cy="2.101" r="2.101" transform="translate(297.455 195.656)" fill="#80e187"/>
          <circle id="Ellipse_57" data-name="Ellipse 57" cx="2.101" cy="2.101" r="2.101" transform="translate(303.337 195.656)" fill="#80e187"/>
          <circle id="Ellipse_58" data-name="Ellipse 58" cx="2.101" cy="2.101" r="2.101" transform="translate(309.219 195.656)" fill="#80e187"/>
          <path id="Path_374" data-name="Path 374" d="M1130.051,4627.056h42.038a2.12,2.12,0,0,1,0,4.24h-42.038a2.12,2.12,0,0,1,0-4.24Z" transform="translate(-890.203 -4438.407)" fill="url(#linear-gradient)"/>
          <path id="Path_375" data-name="Path 375" d="M1116.76,4649.187h57.69a2.1,2.1,0,1,1,0,4.2h-57.69a2.1,2.1,0,1,1,0-4.2Z" transform="translate(-881.133 -4453.531)" fill="#80e187"/>
          <path id="Path_376" data-name="Path 376" d="M1059.663,4671.2h57.69a2.1,2.1,0,1,1,0,4.2h-57.69a2.1,2.1,0,0,1,0-4.2Z" transform="translate(-842.114 -4468.574)" fill="#80e187"/>
          <path id="Path_377" data-name="Path 377" d="M640.788,4098.048a130.166,130.166,0,0,0-25.741-32.589H600.794a1.179,1.179,0,0,1,0-2.359H612.4q-3.272-2.84-6.709-5.437h20.1a1.564,1.564,0,1,0,0-3.128H601.376a130.53,130.53,0,0,0-138.02-6.741l-86.277,48.19v298.727l213.456-119.23a130.4,130.4,0,0,0,50.253-177.435Z" transform="translate(-377.079 -4031.217)" fill="url(#linear-gradient-2)"/>
          <path id="Path_378" data-name="Path 378" d="M627.131,4284.1l-13.48-10.624v-8.543h-4.9v4.68l-17.2-13.557L555.612,4284.1l1.071,6.015,4.635-3.617v38.732h21.348v1.277h17.059v-1.277h22.169v-38.4l4.159,3.277Z" transform="translate(-499.087 -4184.873)" opacity="0.3"/>
          <g id="Group_177" data-name="Group 177" transform="translate(132.119 107.427)">
            <path id="Path_379" data-name="Path 379" d="M844.063,4381.756l-6.236-6.236v2.815H799.371v6.84h38.456v2.816Z" transform="translate(-797.788 -4373.937)" opacity="0.3"/>
            <path id="Path_380" data-name="Path 380" d="M839.063,4376.756l-6.236-6.236v2.815H794.371v6.84h38.456v2.815Z" transform="translate(-794.371 -4370.52)" fill="#33a568"/>
          </g>
          <path id="Path_381" data-name="Path 381" d="M1033.519,4250.053a6.825,6.825,0,0,0-6.825-6.826H986.288a6.825,6.825,0,0,0-6.826,6.826v66.693h33.581a6.825,6.825,0,0,0,6.825-6.825v-59.868h13.651Z" transform="translate(-788.741 -4176.103)" opacity="0.3"/>
          <g id="Group_180" data-name="Group 180" transform="translate(137.898 98.945)">
            <g id="Group_178" data-name="Group 178" transform="translate(0 0.674)" opacity="0.3">
              <path id="Path_382" data-name="Path 382" d="M817.654,4345.859a.54.54,0,0,1,.4.163.5.5,0,0,1,.09.118h.006l1.744,3.494,1.745-3.494.005,0a.625.625,0,0,1,.1-.123.556.556,0,0,1,.788,0,.545.545,0,0,1,.162.395.521.521,0,0,1-.106.324l-2.164,4.344a.481.481,0,0,1-.129.2.533.533,0,0,1-.4.168.527.527,0,0,1-.391-.168.492.492,0,0,1-.129-.19l-1.716-3.438-1.711,3.433a.486.486,0,0,1-.129.2.532.532,0,0,1-.4.168.526.526,0,0,1-.391-.168.488.488,0,0,1-.129-.19l-2.175-4.355a.531.531,0,0,1-.1-.318.561.561,0,0,1,.956-.4.507.507,0,0,1,.09.118h.005l1.745,3.494,1.744-3.494.006,0a.609.609,0,0,1,.095-.123A.534.534,0,0,1,817.654,4345.859Z" transform="translate(-812.622 -4345.859)"/>
              <path id="Path_383" data-name="Path 383" d="M853.023,4345.859a.542.542,0,0,1,.4.163.5.5,0,0,1,.089.118h.006l1.744,3.494,1.745-3.494.005,0a.622.622,0,0,1,.1-.123.556.556,0,0,1,.788,0,.545.545,0,0,1,.162.395.522.522,0,0,1-.106.324l-2.164,4.344a.481.481,0,0,1-.128.2.533.533,0,0,1-.4.168.527.527,0,0,1-.391-.168.492.492,0,0,1-.129-.19l-1.716-3.438-1.711,3.433a.489.489,0,0,1-.128.2.534.534,0,0,1-.4.168.526.526,0,0,1-.391-.168.489.489,0,0,1-.128-.19l-2.175-4.355a.531.531,0,0,1-.1-.318.561.561,0,0,1,.956-.4.513.513,0,0,1,.089.118h.005l1.745,3.494,1.744-3.494.006,0a.607.607,0,0,1,.1-.123A.534.534,0,0,1,853.023,4345.859Z" transform="translate(-836.793 -4345.859)"/>
              <path id="Path_384" data-name="Path 384" d="M888.393,4345.859a.54.54,0,0,1,.4.163.5.5,0,0,1,.09.118h.006l1.744,3.494,1.745-3.494.005,0a.632.632,0,0,1,.095-.123.556.556,0,0,1,.788,0,.545.545,0,0,1,.162.395.521.521,0,0,1-.106.324l-2.164,4.344a.482.482,0,0,1-.128.2.533.533,0,0,1-.4.168.527.527,0,0,1-.391-.168.492.492,0,0,1-.129-.19l-1.716-3.438-1.711,3.433a.486.486,0,0,1-.129.2.533.533,0,0,1-.4.168.526.526,0,0,1-.391-.168.492.492,0,0,1-.129-.19l-2.175-4.355a.529.529,0,0,1-.1-.318.561.561,0,0,1,.956-.4.5.5,0,0,1,.09.118h.005l1.745,3.494,1.744-3.494.005,0a.622.622,0,0,1,.1-.123A.534.534,0,0,1,888.393,4345.859Z" transform="translate(-860.964 -4345.859)"/>
            </g>
            <g id="Group_179" data-name="Group 179" transform="translate(0.675)">
              <path id="Path_385" data-name="Path 385" d="M819.785,4343.729a.539.539,0,0,1,.4.163.5.5,0,0,1,.09.117h.005l1.745,3.494,1.744-3.494.006.005a.585.585,0,0,1,.095-.123.556.556,0,0,1,.788,0,.542.542,0,0,1,.162.394.519.519,0,0,1-.106.324l-2.164,4.345a.482.482,0,0,1-.128.195.533.533,0,0,1-.4.168.526.526,0,0,1-.392-.168.478.478,0,0,1-.128-.19l-1.716-3.438-1.711,3.434a.48.48,0,0,1-.129.195.533.533,0,0,1-.4.168.524.524,0,0,1-.391-.168.483.483,0,0,1-.129-.19l-2.175-4.355a.531.531,0,0,1-.1-.318.561.561,0,0,1,.956-.4.508.508,0,0,1,.089.117h.005l1.745,3.494,1.745-3.494.005.005a.593.593,0,0,1,.095-.123A.532.532,0,0,1,819.785,4343.729Z" transform="translate(-814.753 -4343.729)" fill="url(#linear-gradient-3)"/>
              <path id="Path_386" data-name="Path 386" d="M855.154,4343.729a.539.539,0,0,1,.4.163.5.5,0,0,1,.09.117h.005l1.745,3.494,1.744-3.494.006.005a.583.583,0,0,1,.095-.123.556.556,0,0,1,.788,0,.542.542,0,0,1,.162.394.519.519,0,0,1-.106.324l-2.164,4.345a.478.478,0,0,1-.128.195.532.532,0,0,1-.4.168.526.526,0,0,1-.392-.168.478.478,0,0,1-.128-.19l-1.716-3.438-1.711,3.434a.479.479,0,0,1-.129.195.532.532,0,0,1-.4.168.525.525,0,0,1-.391-.168.483.483,0,0,1-.129-.19l-2.175-4.355a.53.53,0,0,1-.1-.318.561.561,0,0,1,.956-.4.509.509,0,0,1,.089.117h.005l1.745,3.494,1.745-3.494.005.005a.591.591,0,0,1,.095-.123A.533.533,0,0,1,855.154,4343.729Z" transform="translate(-838.924 -4343.729)" fill="url(#linear-gradient-4)"/>
              <path id="Path_387" data-name="Path 387" d="M890.524,4343.729a.54.54,0,0,1,.4.163.506.506,0,0,1,.09.117h.005l1.745,3.494,1.744-3.494.005.005a.6.6,0,0,1,.1-.123.555.555,0,0,1,.788,0,.541.541,0,0,1,.162.394.521.521,0,0,1-.106.324l-2.164,4.345a.479.479,0,0,1-.129.195.532.532,0,0,1-.4.168.526.526,0,0,1-.392-.168.483.483,0,0,1-.129-.19l-1.716-3.438-1.711,3.434a.482.482,0,0,1-.129.195.532.532,0,0,1-.4.168.525.525,0,0,1-.391-.168.479.479,0,0,1-.129-.19l-2.175-4.355a.53.53,0,0,1-.1-.318.561.561,0,0,1,.956-.4.509.509,0,0,1,.089.117h.005l1.745,3.494,1.744-3.494.006.005a.583.583,0,0,1,.095-.123A.532.532,0,0,1,890.524,4343.729Z" transform="translate(-863.095 -4343.729)" fill="url(#linear-gradient-5)"/>
            </g>
          </g>
          <rect id="Rectangle_365" data-name="Rectangle 365" width="175.089" height="5.412" transform="translate(58.115 147.229)" fill="#666"/>
          <path id="Path_388" data-name="Path 388" d="M434.418,4495.837a10.785,10.785,0,1,0-15.163-1.647A10.784,10.784,0,0,0,434.418,4495.837Zm-10.138-12.607a5.393,5.393,0,1,1-.823,7.581A5.392,5.392,0,0,1,424.28,4483.229Z" transform="translate(-404.275 -4335.619)" fill="#fff"/>
          <path id="Path_389" data-name="Path 389" d="M956.928,4520.14a10.785,10.785,0,1,0-15.163-1.648A10.785,10.785,0,0,0,956.928,4520.14Zm-10.138-12.608a5.393,5.393,0,1,1-.824,7.582A5.393,5.393,0,0,1,946.79,4507.532Z" transform="translate(-761.353 -4352.227)" fill="#fff" opacity="0.5"/>
          <path id="Path_390" data-name="Path 390" d="M719.976,4775.319a10.785,10.785,0,1,0-15.163-1.648A10.786,10.786,0,0,0,719.976,4775.319Zm-10.138-12.608a5.393,5.393,0,1,1-.823,7.583A5.393,5.393,0,0,1,709.838,4762.711Z" transform="translate(-599.422 -4526.613)" fill="#fff" opacity="0.25"/>
          <path id="Path_391" data-name="Path 391" d="M436.974,4725.864l-55.122-68.555a32.322,32.322,0,0,0-4.774-31.707v10.9a27.037,27.037,0,0,1,0,18.3v18.09l52.631,65.458-.751,3.371-12.633.032-.647-7.22a2.7,2.7,0,0,0-1.876-2.333l-8.487-2.672-4.055-5.044-.793-8.87a2.7,2.7,0,0,0-1.876-2.333l-7.556-2.373-.706-7.892a2.7,2.7,0,0,0-1.876-2.333l-7.557-2.383-.705-7.892a2.7,2.7,0,0,0-1.556-2.208l-1.558-.715v15.213a2.657,2.657,0,0,0,.478.21l7.571,2.372.705,7.892a2.7,2.7,0,0,0,1.876,2.333l7.556,2.382.705,7.892a2.719,2.719,0,0,0,.581,1.454l5.068,6.3a2.71,2.71,0,0,0,1.29.881l7.561,2.381.705,7.892a2.7,2.7,0,0,0,2.692,2.458l17.265-.043a2.7,2.7,0,0,0,2.626-2.112l3.749-16.853A2.7,2.7,0,0,0,436.974,4725.864Zm-5.763,5.741-53.585-66.645q.845-1.136,1.594-2.32l52.74,65.594Z" transform="translate(-377.079 -4437.413)" fill="#172a3a"/>
          <g id="Group_183" data-name="Group 183" transform="translate(96.699 158.235)">
            <path id="Path_392" data-name="Path 392" d="M777.185,4639.616c-2.461,3.745-6.287,8.515-10.544,9.981q-.557.192-1.147.334c-5.081,1.241-11.707-.134-16.536-1.576a100.594,100.594,0,0,1-22.825-10.476L726,4637.8a100.387,100.387,0,0,1-19.686-15.348c-3.774-3.9-8.442-9.685-9.25-15.119-.661-4.453,1.809-10.048,4-13.958a5.457,5.457,0,0,1,7.182-2.221c2.037,1.009,5.1,2.6,8.129,4.435s5.856,3.832,7.691,5.177A5.428,5.428,0,0,1,725.5,4608l-1.983,3.264a.3.3,0,0,0-.036.231.3.3,0,0,0,.138.189l13.324,8.094,13.587,8.253a.309.309,0,0,0,.422-.1l1.981-3.263a5.431,5.431,0,0,1,7.088-2.057c1.02.5,2.3,1.154,3.7,1.906s2.925,1.611,4.442,2.531c3.027,1.84,5.848,3.827,7.681,5.172A5.454,5.454,0,0,1,777.185,4639.616Z" transform="translate(-692.378 -4571.719)" opacity="0.3"/>
            <path id="Path_393" data-name="Path 393" d="M762.726,4622.559c-2.461,3.744-6.287,8.516-10.544,9.981q-.558.192-1.147.334c-5.081,1.241-11.707-.134-16.536-1.576a100.615,100.615,0,0,1-22.825-10.476l-.131-.081a100.4,100.4,0,0,1-19.686-15.348c-3.773-3.9-8.441-9.686-9.25-15.119-.661-4.454,1.809-10.048,4-13.958a5.457,5.457,0,0,1,7.183-2.221c2.037,1.009,5.1,2.6,8.128,4.435s5.856,3.832,7.691,5.177a5.427,5.427,0,0,1,1.438,7.237l-1.982,3.263a.3.3,0,0,0-.035.232.3.3,0,0,0,.138.189l13.324,8.094,13.587,8.253a.31.31,0,0,0,.422-.1l1.981-3.263a5.433,5.433,0,0,1,7.088-2.058c1.019.5,2.3,1.155,3.7,1.907s2.925,1.611,4.442,2.531c3.027,1.841,5.848,3.827,7.681,5.172A5.453,5.453,0,0,1,762.726,4622.559Z" transform="translate(-682.498 -4560.062)" fill="#33a568"/>
            <g id="Group_181" data-name="Group 181" transform="translate(22.677)">
              <path id="Path_394" data-name="Path 394" d="M768.563,4532.959a2.577,2.577,0,1,0-5.006,1.223l.545,2.231a2.577,2.577,0,0,0,5.006-1.223Z" transform="translate(-760.519 -4530.993)" fill="#55696e"/>
              <path id="Path_395" data-name="Path 395" d="M788.4,4552.393l.545,2.23a2.576,2.576,0,1,1-5.006,1.223l-.545-2.231a2.576,2.576,0,0,1,5.006-1.222Z" transform="translate(-774.078 -4544.274)" fill="#55696e"/>
              <path id="Path_396" data-name="Path 396" d="M756.089,4557.63a2.577,2.577,0,0,0-1.892,3.114l.545,2.231a2.576,2.576,0,1,0,5.006-1.223l-.545-2.231A2.576,2.576,0,0,0,756.089,4557.63Z" transform="translate(-754.123 -4549.146)" fill="#55696e"/>
            </g>
            <g id="Group_182" data-name="Group 182" transform="translate(72.973 33.535)">
              <path id="Path_397" data-name="Path 397" d="M926.707,4638.878a2.577,2.577,0,0,0-5.006,1.223l.545,2.232a2.577,2.577,0,1,0,5.006-1.223Z" transform="translate(-918.889 -4636.913)" fill="#323c3c"/>
              <path id="Path_398" data-name="Path 398" d="M918.06,4665.268l.545,2.231a2.576,2.576,0,0,1-5.006,1.222l-.545-2.23a2.576,2.576,0,1,1,5.006-1.223Z" transform="translate(-912.98 -4654.947)" fill="#55696e"/>
              <path id="Path_399" data-name="Path 399" d="M944.143,4656.247a2.576,2.576,0,0,0-1.892,3.114l.545,2.232a2.576,2.576,0,1,0,5.006-1.223l-.545-2.231A2.576,2.576,0,0,0,944.143,4656.247Z" transform="translate(-932.933 -4650.075)" fill="#323c3c"/>
            </g>
          </g>
          <g id="Group_184" data-name="Group 184" transform="translate(23.214 27.773)">
            <path id="Path_400" data-name="Path 400" d="M488.566,4118.936a13.543,13.543,0,0,0-13.139,10.821,17.793,17.793,0,1,0-7.236,34.048H483.47a18.762,18.762,0,0,0,18.762-18.762v-12.354A13.737,13.737,0,0,0,488.566,4118.936Z" transform="translate(-450.399 -4118.935)" fill="#fff" opacity="0.3"/>
            <path id="Path_401" data-name="Path 401" d="M494.356,4187.3a8.531,8.531,0,0,0-8.276,6.816,11.207,11.207,0,1,0-4.557,21.445h9.623a11.817,11.817,0,0,0,11.817-11.817v-7.781A8.653,8.653,0,0,0,494.356,4187.3Z" transform="translate(-464.01 -4165.653)" fill="#fff"/>
          </g>
          <g id="Group_185" data-name="Group 185" transform="translate(164.805 35.16)">
            <path id="Path_402" data-name="Path 402" d="M935.774,4142.269a13.542,13.542,0,0,0-13.139,10.822,17.793,17.793,0,1,0-7.236,34.047h15.277a18.761,18.761,0,0,0,18.762-18.762v-12.354A13.737,13.737,0,0,0,935.774,4142.269Z" transform="translate(-897.607 -4142.268)" fill="#fff" opacity="0.3"/>
            <path id="Path_403" data-name="Path 403" d="M941.564,4210.631a8.529,8.529,0,0,0-8.276,6.815,11.207,11.207,0,1,0-4.557,21.445h9.622a11.817,11.817,0,0,0,11.817-11.817v-7.781A8.652,8.652,0,0,0,941.564,4210.631Z" transform="translate(-911.218 -4188.987)" fill="#fff"/>
          </g>
          <path id="Path_404" data-name="Path 404" d="M816.419,4113.339a10.882,10.882,0,0,0-21.081.992,14.341,14.341,0,1,0-5.832,27.443H801.82a15.061,15.061,0,0,0,5.979-1.229,14.481,14.481,0,1,0,8.619-27.206Z" transform="translate(-649.126 -4082.055)" fill="#fff"/>
          <path id="Path_405" data-name="Path 405" d="M650.305,4213.554a5.555,5.555,0,0,0-11.013.588,6.7,6.7,0,0,0-3.42-.726c-3.908.217-7.038,3.878-7.118,8.321-.087,4.782,3.3,8.689,7.491,8.689h6.433a7.071,7.071,0,0,0,3.124-.729,6.819,6.819,0,0,0,3.478.963c4.179,0,7.566-3.848,7.566-8.594C656.846,4217.716,654,4214.123,650.305,4213.554Z" transform="translate(-549.07 -4152.689)" fill="#fff" opacity="0.5"/>
          <g id="Group_186" data-name="Group 186" transform="translate(52.41 68.022)">
            <path id="Path_87" data-name="Path 87" d="M710.441,4280.56V4274.1h4.9v12.262Z" transform="translate(-657.304 -4265.221)" fill="#33a568"/>
            <path id="Path_90" data-name="Path 90" d="M618.894,4330.748H562.946c-1.278,0-2.313.575-2.313,1.286v41.073H621.21v-41.073C621.21,4331.323,620.171,4330.748,618.894,4330.748Z" transform="translate(-554.927 -4303.935)" fill="url(#linear-gradient-6)"/>
            <path id="Path_91" data-name="Path 91" d="M592.735,4256.518l-29.187,21.68v42.614H622.1v-41.068Z" transform="translate(-556.919 -4253.207)" fill="#fff"/>
            <path id="Path_93" data-name="Path 93" d="M543.683,4280.116l-1.071-6.015,35.935-28.041L614.13,4274.1l-1.077,6.009-34.512-27.2Z" transform="translate(-542.612 -4246.061)" fill="#33a568"/>
            <rect id="Rectangle_202" data-name="Rectangle 202" width="13.23" height="18.801" transform="translate(29.2 48.804)" fill="#33a568"/>
            <rect id="Rectangle_203" data-name="Rectangle 203" width="10.677" height="3.772" transform="translate(12.721 35.805)" fill="#33a568"/>
            <rect id="Rectangle_204" data-name="Rectangle 204" width="10.677" height="6.905" transform="translate(12.721 39.577)" fill="#33a568" opacity="0.2"/>
            <rect id="Rectangle_205" data-name="Rectangle 205" width="10.677" height="3.772" transform="translate(48.234 35.805)" fill="#33a568"/>
            <rect id="Rectangle_206" data-name="Rectangle 206" width="10.677" height="6.905" transform="translate(48.234 39.577)" fill="#33a568" opacity="0.2"/>
            <path id="Path_95" data-name="Path 95" d="M642.958,4323.834a5.919,5.919,0,0,0,5.919-5.919H637.039A5.919,5.919,0,0,0,642.958,4323.834Z" transform="translate(-607.142 -4295.166)" fill="#33a568"/>
            <path id="Path_97" data-name="Path 97" d="M642.958,4299.4a5.919,5.919,0,0,0-5.919,5.914h11.838A5.919,5.919,0,0,0,642.958,4299.4Z" transform="translate(-607.142 -4282.514)" fill="#33a568" opacity="0.2"/>
            <circle id="Ellipse_19" data-name="Ellipse 19" cx="1.045" cy="1.045" r="1.045" transform="translate(38.31 57.101)" fill="#263238"/>
            <rect id="Rectangle_207" data-name="Rectangle 207" width="17.059" height="5.57" transform="translate(27.054 64.877)" fill="url(#linear-gradient-7)"/>
            <rect id="Rectangle_208" data-name="Rectangle 208" width="16.363" height="4.758" transform="translate(27.401 65.341)" fill="#fff"/>
          </g>
          <g id="Group_187" data-name="Group 187" transform="translate(116.658 52.726)">
            <path id="Path_406" data-name="Path 406" d="M784.3,4210.748l-23.426,23.426-10.5-10.5-4.837,4.837,10.5,10.5h0l4.837,4.836,4.837-4.836,23.426-23.426Z" transform="translate(-745.538 -4206.631)" opacity="0.3"/>
            <path id="Path_407" data-name="Path 407" d="M784.3,4197.748l-23.426,23.426-10.5-10.5-4.837,4.837,10.5,10.5h0l4.837,4.836,4.837-4.836,23.426-23.426Z" transform="translate(-745.538 -4197.748)" fill="#33a568"/>
          </g>
          <g id="Group_208" data-name="Group 208" transform="translate(185.972 63.009)">
            <path id="Path_408" data-name="Path 408" d="M1105.735,4237.053h-13.651a6.826,6.826,0,1,1,13.651,0Z" transform="translate(-1051.677 -4230.227)" fill="#666"/>
            <g id="Group_207" data-name="Group 207">
              <path id="Path_409" data-name="Path 409" d="M971.287,4230.227a6.825,6.825,0,0,0-6.826,6.826v66.693h33.581a6.825,6.825,0,0,0,6.825-6.825v-59.868a6.825,6.825,0,0,1,6.826-6.826Z" transform="translate(-964.462 -4230.227)" fill="#fff"/>
              <g id="Group_206" data-name="Group 206" transform="translate(6.188 5.294)">
                <g id="Group_188" data-name="Group 188" transform="translate(8.257)">
                  <rect id="Rectangle_366" data-name="Rectangle 366" width="13.963" height="1.593" rx="0.796" fill="#00897b"/>
                </g>
                <g id="Group_203" data-name="Group 203" transform="translate(0 6.736)">
                  <g id="Group_197" data-name="Group 197" transform="translate(13.288)">
                    <g id="Group_189" data-name="Group 189">
                      <path id="Path_410" data-name="Path 410" d="M1042.761,4268.562a.063.063,0,0,1,.063.063v.786a.062.062,0,0,1-.062.062h-16.383a.062.062,0,0,1-.062-.062v-.786a.063.063,0,0,1,.062-.062h16.383m0-.341h-16.383a.4.4,0,0,0-.4.4v.786a.4.4,0,0,0,.4.4h16.383a.4.4,0,0,0,.4-.4v-.786a.4.4,0,0,0-.4-.4Z" transform="translate(-1025.975 -4268.221)" fill="#33a568"/>
                    </g>
                    <g id="Group_190" data-name="Group 190" transform="translate(0 4.778)">
                      <path id="Path_411" data-name="Path 411" d="M1042.761,4283.653a.063.063,0,0,1,.063.063v.786a.063.063,0,0,1-.062.063h-16.383a.063.063,0,0,1-.062-.062v-.786a.063.063,0,0,1,.062-.062h16.383m0-.341h-16.383a.4.4,0,0,0-.4.4v.786a.4.4,0,0,0,.4.4h16.383a.4.4,0,0,0,.4-.4v-.786a.4.4,0,0,0-.4-.4Z" transform="translate(-1025.975 -4283.312)" fill="#33a568"/>
                    </g>
                    <g id="Group_191" data-name="Group 191" transform="translate(0 9.556)">
                      <path id="Path_412" data-name="Path 412" d="M1042.761,4298.743a.063.063,0,0,1,.063.063v.785a.063.063,0,0,1-.062.063h-16.383a.062.062,0,0,1-.062-.062v-.785a.063.063,0,0,1,.062-.062h16.383m0-.341h-16.383a.4.4,0,0,0-.4.4v.785a.4.4,0,0,0,.4.4h16.383a.4.4,0,0,0,.4-.4v-.785a.4.4,0,0,0-.4-.4Z" transform="translate(-1025.975 -4298.402)" fill="#33a568"/>
                    </g>
                    <g id="Group_192" data-name="Group 192" transform="translate(0 14.334)">
                      <path id="Path_413" data-name="Path 413" d="M1042.761,4313.834a.063.063,0,0,1,.063.063v.785a.063.063,0,0,1-.062.063h-16.383a.063.063,0,0,1-.062-.063v-.785a.063.063,0,0,1,.062-.062h16.383m0-.341h-16.383a.4.4,0,0,0-.4.4v.785a.4.4,0,0,0,.4.4h16.383a.4.4,0,0,0,.4-.4v-.785a.4.4,0,0,0-.4-.4Z" transform="translate(-1025.975 -4313.493)" fill="#33a568"/>
                    </g>
                    <g id="Group_193" data-name="Group 193" transform="translate(0 23.434)">
                      <path id="Path_414" data-name="Path 414" d="M1042.761,4342.577a.063.063,0,0,1,.063.063v.785a.063.063,0,0,1-.062.063h-16.383a.063.063,0,0,1-.062-.063v-.785a.062.062,0,0,1,.062-.062h16.383m0-.341h-16.383a.4.4,0,0,0-.4.4v.785a.4.4,0,0,0,.4.4h16.383a.4.4,0,0,0,.4-.4v-.785a.4.4,0,0,0-.4-.4Z" transform="translate(-1025.975 -4342.236)" fill="#33a568"/>
                    </g>
                    <g id="Group_194" data-name="Group 194" transform="translate(0 28.212)">
                      <path id="Path_415" data-name="Path 415" d="M1042.761,4357.668a.063.063,0,0,1,.063.063v.785a.063.063,0,0,1-.062.063h-16.383a.062.062,0,0,1-.062-.062v-.785a.062.062,0,0,1,.062-.062h16.383m0-.341h-16.383a.4.4,0,0,0-.4.4v.785a.4.4,0,0,0,.4.4h16.383a.4.4,0,0,0,.4-.4v-.785a.4.4,0,0,0-.4-.4Z" transform="translate(-1025.975 -4357.327)" fill="#33a568"/>
                    </g>
                    <g id="Group_195" data-name="Group 195" transform="translate(0 32.99)">
                      <path id="Path_416" data-name="Path 416" d="M1042.761,4372.758a.063.063,0,0,1,.063.063v.786a.063.063,0,0,1-.062.062h-16.383a.062.062,0,0,1-.062-.062v-.786a.062.062,0,0,1,.062-.062h16.383m0-.341h-16.383a.4.4,0,0,0-.4.4v.786a.4.4,0,0,0,.4.4h16.383a.4.4,0,0,0,.4-.4v-.786a.4.4,0,0,0-.4-.4Z" transform="translate(-1025.975 -4372.417)" fill="#33a568"/>
                    </g>
                    <g id="Group_196" data-name="Group 196" transform="translate(0 37.767)">
                      <path id="Path_417" data-name="Path 417" d="M1042.761,4387.849a.063.063,0,0,1,.063.063v.785a.063.063,0,0,1-.062.063h-16.383a.062.062,0,0,1-.062-.063v-.785a.062.062,0,0,1,.062-.062h16.383m0-.341h-16.383a.4.4,0,0,0-.4.4v.785a.4.4,0,0,0,.4.4h16.383a.4.4,0,0,0,.4-.4v-.785a.4.4,0,0,0-.4-.4Z" transform="translate(-1025.975 -4387.508)" fill="#33a568"/>
                    </g>
                  </g>
                  <g id="Group_202" data-name="Group 202">
                    <g id="Group_198" data-name="Group 198">
                      <rect id="Rectangle_367" data-name="Rectangle 367" width="8.737" height="1.593" rx="0.796" fill="#33a568"/>
                    </g>
                    <g id="Group_199" data-name="Group 199" transform="translate(0 4.778)">
                      <rect id="Rectangle_368" data-name="Rectangle 368" width="8.737" height="1.593" rx="0.796" fill="#33a568"/>
                    </g>
                    <g id="Group_200" data-name="Group 200" transform="translate(0 9.556)">
                      <rect id="Rectangle_369" data-name="Rectangle 369" width="8.737" height="1.593" rx="0.796" fill="#33a568"/>
                    </g>
                    <g id="Group_201" data-name="Group 201" transform="translate(0 14.333)">
                      <rect id="Rectangle_370" data-name="Rectangle 370" width="8.737" height="1.593" rx="0.796" fill="#33a568"/>
                    </g>
                  </g>
                </g>
                <g id="Group_204" data-name="Group 204" transform="translate(0.102 26.105)">
                  <rect id="Rectangle_371" data-name="Rectangle 371" width="30.273" height="1.593" rx="0.796" fill="#69f0ae"/>
                </g>
                <g id="Group_205" data-name="Group 205" transform="translate(1.216 53.634)">
                  <path id="Path_418" data-name="Path 418" d="M1015.155,4417.939H988.584a.769.769,0,0,1-.738-.8h0a.769.769,0,0,1,.738-.8h26.571a.769.769,0,0,1,.738.8h0A.768.768,0,0,1,1015.155,4417.939Z" transform="translate(-987.846 -4416.347)" fill="#69f0ae"/>
                </g>
              </g>
            </g>
          </g>
          <g id="Group_210" data-name="Group 210" transform="translate(93.569 17.595)">
            <g id="Group_209" data-name="Group 209" transform="translate(4.854 7.207)">
              <g transform="matrix(1, 0, 0, 1, -98.42, -52.98)" filter="url(#Ellipse_59)">
                <circle id="Ellipse_59-2" data-name="Ellipse 59" cx="10.358" cy="10.358" r="10.358" transform="translate(98.42 52.98)" fill="#fff"/>
              </g>
              <circle id="Ellipse_60" data-name="Ellipse 60" cx="7.688" cy="7.688" r="7.688" transform="translate(2.67 2.67)" fill="#f7ba1e"/>
            </g>
            <path id="Path_419" data-name="Path 419" d="M717.944,4091.685l.859-4.9.86,4.9Z" transform="translate(-703.591 -4086.789)" fill="#fff"/>
            <path id="Path_420" data-name="Path 420" d="M676.423,4117.721l-3.811-3.192,4.67,1.7Z" transform="translate(-672.612 -4105.746)" fill="#fff"/>
            <path id="Path_421" data-name="Path 421" d="M677.282,4161.413l-4.67,1.7,3.811-3.192Z" transform="translate(-672.612 -4136.769)" fill="#fff"/>
            <path id="Path_422" data-name="Path 422" d="M719.663,4182.283l-.86,4.9-.859-4.9Z" transform="translate(-703.591 -4152.048)" fill="#fff"/>
            <path id="Path_423" data-name="Path 423" d="M754.815,4159.924l3.811,3.192-4.67-1.7Z" transform="translate(-728.201 -4136.769)" fill="#fff"/>
            <path id="Path_424" data-name="Path 424" d="M753.955,4116.232l4.67-1.7-3.811,3.192Z" transform="translate(-728.201 -4105.746)" fill="#fff"/>
          </g>
          <path id="Path_425" data-name="Path 425" d="M1054.416,4294.705a11.465,11.465,0,0,0,.339-6.5l-.841-3.5a21.32,21.32,0,0,1-5.14-1.616,1.829,1.829,0,0,0-.927.544,1.847,1.847,0,0,0-2.825-.339l-.986-4.1a1.848,1.848,0,0,0-3.594.863l1.553,6.468-1.031,1.113a3.41,3.41,0,0,0-.541,3.834,13.49,13.49,0,0,0,5,5.435l.018.011.452,1.88a.462.462,0,0,0,.557.342l8.086-1.942a.462.462,0,0,0,.341-.557Z" transform="translate(-830.156 -4199.711)" opacity="0.3"/>
          <g id="Group_211" data-name="Group 211" transform="translate(207.376 76.163)">
            <path id="Path_426" data-name="Path 426" d="M1043.761,4280.458a1.386,1.386,0,0,1,2.7-.647l.841,3.5a11,11,0,0,1-.372,6.366l.5,2.067-8.086,1.942-.5-2.067a13.052,13.052,0,0,1-5.011-5.36,2.934,2.934,0,0,1,.468-3.312l1.2-1.294-1.611-6.709a1.386,1.386,0,0,1,2.7-.647l1.359,5.66a1.386,1.386,0,1,1,2.7-.647l.216.9a1.386,1.386,0,0,1,2.7-.647Z" transform="translate(-1033.056 -4272.771)" fill="#debd97"/>
            <path id="Path_427" data-name="Path 427" d="M1070.211,4304.756a.462.462,0,1,0-.557-.341A.463.463,0,0,0,1070.211,4304.756Z" transform="translate(-1057.744 -4293.69)" fill="url(#linear-gradient-8)"/>
            <path id="Path_428" data-name="Path 428" d="M1032.425,4285.469a13.49,13.49,0,0,0,5,5.435l.018.011.452,1.879a.462.462,0,0,0,.557.342l8.086-1.942a.462.462,0,0,0,.341-.557l-.464-1.932a11.463,11.463,0,0,0,.339-6.5l-.841-3.5a21.25,21.25,0,0,1-5.14-1.617,1.846,1.846,0,0,1-2.911-.25,1.837,1.837,0,0,0-.841.457l-.986-4.1a1.848,1.848,0,1,0-3.594.863l1.553,6.468-1.031,1.114A3.409,3.409,0,0,0,1032.425,4285.469Zm1.219-3.206.612-.662.734,3.054a.462.462,0,0,0,.9-.216l-2.546-10.6a.924.924,0,1,1,1.8-.431l2.115,8.8a.462.462,0,0,0,.9-.216l-.755-3.145a.924.924,0,0,1,1.8-.432l.755,3.145a.462.462,0,0,0,.9-.216l-.539-2.246a.924.924,0,0,1,1.8-.432l.539,2.247a.462.462,0,1,0,.9-.216l-.323-1.348a.924.924,0,1,1,1.8-.432l.841,3.5a10.54,10.54,0,0,1-.356,6.1.463.463,0,0,0-.016.268l.389,1.617-7.188,1.726-.388-1.617a.462.462,0,0,0-.208-.286,12.588,12.588,0,0,1-4.84-5.173A2.482,2.482,0,0,1,1033.644,4282.263Z" transform="translate(-1032.065 -4271.773)" fill="url(#linear-gradient-9)"/>
            <path id="Path_429" data-name="Path 429" d="M1069.236,4314.323a.462.462,0,0,0,.593-.274,9.537,9.537,0,0,0,.566-4.024.462.462,0,0,0-.922.069,8.618,8.618,0,0,1-.511,3.636A.461.461,0,0,0,1069.236,4314.323Z" transform="translate(-1057.26 -4297.622)" fill="url(#linear-gradient-10)"/>
          </g>
        </g>
      </g>
    </g>
  </g>
</svg>
