<svg xmlns="http://www.w3.org/2000/svg" xmlns:xlink="http://www.w3.org/1999/xlink" width="926.24" height="1047.594" viewBox="0 0 926.24 1047.594">
  <defs>
    <linearGradient id="linear-gradient" y1="0.5" x2="1" y2="0.5" gradientUnits="objectBoundingBox">
      <stop offset="0" stop-color="#0a7e7e"/>
      <stop offset="1" stop-color="#172a3a"/>
    </linearGradient>
    <linearGradient id="linear-gradient-4" y1="0.5" x2="1" y2="0.5" gradientUnits="objectBoundingBox">
      <stop offset="0" stop-color="#d9ffff"/>
      <stop offset="0.251" stop-color="#d6fdfe"/>
      <stop offset="0.405" stop-color="#cdf9fd"/>
      <stop offset="0.532" stop-color="#bff2fa"/>
      <stop offset="0.645" stop-color="#abe9f7"/>
      <stop offset="0.748" stop-color="#90dcf3"/>
      <stop offset="0.845" stop-color="#70cced"/>
      <stop offset="0.934" stop-color="#4abae7"/>
      <stop offset="1" stop-color="#29abe2"/>
    </linearGradient>
    <linearGradient id="linear-gradient-5" x1="-120.278" y1="0.5" x2="124.481" y2="0.5" gradientUnits="objectBoundingBox">
      <stop offset="0" stop-color="#fff"/>
      <stop offset="0.124" stop-color="#f2ffff"/>
      <stop offset="0.333" stop-color="#e3ffff"/>
      <stop offset="0.586" stop-color="#dbffff"/>
      <stop offset="1" stop-color="#d9ffff"/>
    </linearGradient>
    <linearGradient id="linear-gradient-6" x1="-70.678" y1="0.5" x2="96.485" y2="0.5" xlink:href="#linear-gradient-5"/>
    <linearGradient id="linear-gradient-7" x1="-0.582" y1="7.775" x2="0.871" y2="-2.154" xlink:href="#linear-gradient"/>
    <linearGradient id="linear-gradient-8" x1="-6.072" y1="0.5" x2="1.285" y2="0.5" xlink:href="#linear-gradient-5"/>
    <filter id="Ellipse_54" x="485.116" y="173.824" width="56.007" height="56.007" filterUnits="userSpaceOnUse">
      <feOffset input="SourceAlpha"/>
      <feGaussianBlur stdDeviation="2.5" result="blur"/>
      <feFlood flood-color="#fff" flood-opacity="0.749"/>
      <feComposite operator="in" in2="blur"/>
      <feComposite in="SourceGraphic"/>
    </filter>
    <linearGradient id="linear-gradient-9" x1="-5.074" y1="-18.166" x2="-5.074" y2="-18.159" gradientUnits="objectBoundingBox">
      <stop offset="0" stop-color="gray" stop-opacity="0.251"/>
      <stop offset="0.54" stop-color="gray" stop-opacity="0.122"/>
      <stop offset="1" stop-color="gray" stop-opacity="0.102"/>
    </linearGradient>
    <linearGradient id="linear-gradient-10" x1="-7.11" y1="-29.376" x2="-7.099" y2="-29.376" xlink:href="#linear-gradient-9"/>
    <linearGradient id="linear-gradient-11" x1="-47.842" y1="-396.522" x2="-47.842" y2="-396.451" xlink:href="#linear-gradient-9"/>
    <linearGradient id="linear-gradient-12" x1="-0.048" y1="0.535" x2="3.034" y2="0.288" xlink:href="#linear-gradient"/>
    <linearGradient id="linear-gradient-13" x1="-1.159" y1="0.624" x2="1.924" y2="0.377" xlink:href="#linear-gradient"/>
    <linearGradient id="linear-gradient-14" x1="-2.27" y1="0.713" x2="0.813" y2="0.466" xlink:href="#linear-gradient"/>
  </defs>
  <g id="Group_176" data-name="Group 176" transform="translate(0 -1147)">
    <path id="Path_372" data-name="Path 372" d="M1274.459,3144.63a143.534,143.534,0,0,0-55.146-43.716,147.793,147.793,0,0,0-114.973-54.767H1091A369.675,369.675,0,0,0,982.466,2983.2,357.734,357.734,0,0,0,839.8,2961.723c-67.886,3.465-136.9,25.881-199.578,64.828-53.36,33.155-102.367,78.519-142.7,131.95A234.711,234.711,0,0,1,474.4,3137.9l-97.319-97.505v943.633c49.953,16.261,107.332,24.811,167.226,24.81a660.823,660.823,0,0,0,66.448-3.4c119.845-12.171,230.334-55.924,311.116-123.2,107.755-89.741,196.342-201.821,249.44-315.594,30.051-64.393,48.181-127.978,53.886-188.989q1.026-10.976,1.517-21.885a141.728,141.728,0,0,0,76.607-125.645A140.014,140.014,0,0,0,1274.459,3144.63Z" transform="translate(-377.079 -1814.239)" fill="#73ceee" opacity="0.1"/>
    <g id="Group_163" data-name="Group 163" transform="translate(-377.079 -1813.739)">
      <circle id="thirdellipse" cx="4" cy="4" r="4" transform="translate(1080.456 3208.415)" fill="url(#linear-gradient)"/>
      <circle id="thirdellipse-2" data-name="thirdellipse" cx="4" cy="4" r="4" transform="translate(1090.456 3208.415)" fill="url(#linear-gradient)"/>
      <circle id="thirdellipse-3" data-name="thirdellipse" cx="4" cy="4" r="4" transform="translate(1100.456 3208.415)" fill="url(#linear-gradient)"/>
      <path id="Path_330" data-name="Path 330" d="M1161.276,3226.028h-97.111a216.787,216.787,0,0,0-14.656-24.232h54.831c5.558,0,10.064-4.063,10.064-9.074s-4.506-9.074-10.064-9.074H1035.4c-125.756-145.487-323.532-92.2-437.274,70.261-42.571,60.8-117.513,84.852-221.05-18.88v599.982c106.476,59.776,327.341,49.381,456.8-58.431,181.063-150.791,308.388-383.321,234.319-542.359h93.081a4.118,4.118,0,1,0,0-8.193Z" fill="url(#linear-gradient-4)"/>
      <rect id="Rectangle_355" data-name="Rectangle 355" width="10.716" height="10.716" transform="translate(991.819 3631.994) rotate(45)" fill="#172a3a"/>
      <rect id="Rectangle_356" data-name="Rectangle 356" width="12.396" height="12.396" transform="translate(391.331 3853.801) rotate(45)" fill="#172a3a"/>
      <rect id="Rectangle_357" data-name="Rectangle 357" width="12.939" height="12.939" transform="translate(517.05 3282.286) rotate(45)" fill="#172a3a"/>
      <path id="Path_331" data-name="Path 331" d="M655.865,3324.932l-.761.76,1.795,1.8.761-.761a1.27,1.27,0,0,0-1.795-1.8Z" fill="url(#linear-gradient-5)"/>
      <path id="Path_332" data-name="Path 332" d="M607.136,3373.667l-1.2,2.994,2.987-1.2,1.3-1.3-1.8-1.8Z" fill="url(#linear-gradient-6)"/>
      <path id="Path_333" data-name="Path 333" d="M1074.456,3208.415H997.387q2.3,3.963,4.432,8h72.637a4,4,0,0,0,0-8Z" fill="url(#linear-gradient-7)"/>
      <path id="Path_334" data-name="Path 334" d="M898.413,3208.415a4,4,0,0,0,0,8h93.406q-2.128-4.038-4.432-8Z" fill="url(#linear-gradient-8)"/>
      <path id="Path_335" data-name="Path 335" d="M898.413,3208.415a4,4,0,0,0,0,8h93.406q-2.128-4.038-4.432-8Z" fill="#fff"/>
      <circle id="Ellipse_51" data-name="Ellipse 51" cx="2.163" cy="2.163" r="2.163" transform="translate(533.983 3265.004)" fill="#80e187"/>
      <circle id="Ellipse_52" data-name="Ellipse 52" cx="2.163" cy="2.163" r="2.163" transform="translate(527.929 3265.004)" fill="#80e187"/>
      <circle id="Ellipse_53" data-name="Ellipse 53" cx="2.163" cy="2.163" r="2.163" transform="translate(521.874 3265.004)" fill="#80e187"/>
      <g id="Group_129" data-name="Group 129">
        <path id="Path_336" data-name="Path 336" d="M822.467,3151.8a42.775,42.775,0,0,0-41.5,34.178,56.2,56.2,0,1,0-22.853,107.54h48.253a59.259,59.259,0,0,0,59.259-59.258v-39.018C865.627,3171.5,846.2,3151.582,822.467,3151.8Z" fill="#fff" opacity="0.3"/>
        <path id="Path_337" data-name="Path 337" d="M797.762,3220.161a26.941,26.941,0,0,0-26.137,21.527,35.4,35.4,0,1,0-14.394,67.733h30.392a37.323,37.323,0,0,0,37.323-37.323v-24.576C824.946,3232.571,812.713,3220.024,797.762,3220.161Z" fill="#fff"/>
      </g>
      <path id="Path_338" data-name="Path 338" d="M598.413,3296.571a23.921,23.921,0,0,0-46.342,2.18,31.527,31.527,0,1,0-12.821,60.33h27.071a33.139,33.139,0,0,0,13.144-2.7,31.834,31.834,0,1,0,18.948-59.809Z" fill="#fff"/>
      <path id="Path_339" data-name="Path 339" d="M700,3177.862c-2.35-8.371-9.236-14.573-17.31-14.489-8.632.09-15.812,7.079-17.474,16.347a21.178,21.178,0,0,0-10.8-2.291c-12.342.685-22.229,12.249-22.482,26.282-.273,15.1,10.424,27.445,23.659,27.445H675.91a22.335,22.335,0,0,0,9.866-2.3,21.532,21.532,0,0,0,10.986,3.041c13.2,0,23.9-12.152,23.9-27.143C720.659,3191.007,711.665,3179.657,700,3177.862Z" fill="#fff" opacity="0.5"/>
      <g id="Group_131" data-name="Group 131">
        <g id="Group_130" data-name="Group 130">
          <g transform="matrix(1, 0, 0, 1, 377.08, 2960.74)" filter="url(#Ellipse_54)">
            <circle id="Ellipse_54-2" data-name="Ellipse 54" cx="20.504" cy="20.504" r="20.504" transform="translate(492.62 181.32)" fill="#fff"/>
          </g>
          <circle id="Ellipse_55" data-name="Ellipse 55" cx="15.218" cy="15.218" r="15.218" transform="translate(874.98 3147.349)" fill="#f7ba1e"/>
        </g>
        <path id="Path_340" data-name="Path 340" d="M888.5,3137.489l1.7-9.692,1.7,9.692Z" fill="#fff"/>
        <path id="Path_341" data-name="Path 341" d="M867.63,3151.5l-7.543-6.319,9.244,3.373Z" fill="#fff"/>
        <path id="Path_342" data-name="Path 342" d="M869.331,3176.579l-9.244,3.373,7.543-6.319Z" fill="#fff"/>
        <path id="Path_343" data-name="Path 343" d="M891.9,3187.645l-1.7,9.692-1.7-9.692Z" fill="#fff"/>
        <path id="Path_344" data-name="Path 344" d="M912.767,3173.633l7.543,6.319-9.244-3.373Z" fill="#fff"/>
        <path id="Path_345" data-name="Path 345" d="M911.066,3148.555l9.244-3.373-7.543,6.319Z" fill="#fff"/>
      </g>
      <g id="Group_159" data-name="Group 159">
        <g id="Group_157" data-name="Group 157">
          <path id="Path_346" data-name="Path 346" d="M847.946,3312.888H677.208a28.839,28.839,0,0,0-28.841,28.84v118.383H561.844a28.84,28.84,0,0,0-28.84,28.84v281.814H674.9a28.841,28.841,0,0,0,28.841-28.841V3623.542h86.523c.579,0,1.152-.022,1.722-.056,12.953-.57,19.735-7.476,23.268-14.393A28.7,28.7,0,0,0,819.1,3594.7V3341.728h57.681A28.839,28.839,0,0,0,847.946,3312.888Z" opacity="0.3"/>
          <g id="Group_156" data-name="Group 156">
            <g id="Group_151" data-name="Group 151">
              <path id="Path_347" data-name="Path 347" d="M860.9,3299.931a28.84,28.84,0,0,0-28.841,28.841v252.973a28.841,28.841,0,0,1-57.682,0V3476a28.841,28.841,0,1,0-57.682,0v134.591H661.323V3328.772a28.84,28.84,0,0,1,28.841-28.841Z" fill="#fff"/>
              <path id="Path_348" data-name="Path 348" d="M889.742,3328.772H832.061a28.841,28.841,0,1,1,57.681,0Z" fill="#666"/>
              <g id="Group_150" data-name="Group 150">
                <g id="Group_132" data-name="Group 132">
                  <rect id="Rectangle_358" data-name="Rectangle 358" width="59" height="6.73" rx="3.365" transform="translate(722.362 3322.3)" fill="#00897b"/>
                </g>
                <g id="Group_147" data-name="Group 147">
                  <g id="Group_141" data-name="Group 141">
                    <g id="Group_133" data-name="Group 133">
                      <path id="Path_349" data-name="Path 349" d="M814.548,3352.2a.264.264,0,0,1,.264.263v3.319a.264.264,0,0,1-.264.263H745.323a.263.263,0,0,1-.263-.263v-3.319a.263.263,0,0,1,.263-.263h69.225m0-1.442H745.323a1.705,1.705,0,0,0-1.705,1.705v3.319a1.705,1.705,0,0,0,1.705,1.705h69.225a1.705,1.705,0,0,0,1.706-1.705v-3.319a1.705,1.705,0,0,0-1.706-1.705Z" fill="#33a568"/>
                    </g>
                    <g id="Group_134" data-name="Group 134">
                      <path id="Path_350" data-name="Path 350" d="M814.548,3372.392a.264.264,0,0,1,.264.263v3.32a.264.264,0,0,1-.264.263H745.323a.263.263,0,0,1-.263-.263v-3.32a.263.263,0,0,1,.263-.263h69.225m0-1.442H745.323a1.706,1.706,0,0,0-1.705,1.705v3.32a1.706,1.706,0,0,0,1.705,1.7h69.225a1.706,1.706,0,0,0,1.706-1.7v-3.32a1.706,1.706,0,0,0-1.706-1.705Z" fill="#33a568"/>
                    </g>
                    <g id="Group_135" data-name="Group 135">
                      <path id="Path_351" data-name="Path 351" d="M814.548,3392.581a.264.264,0,0,1,.264.263v3.319a.264.264,0,0,1-.264.263H745.323a.263.263,0,0,1-.263-.263v-3.319a.263.263,0,0,1,.263-.263h69.225m0-1.442H745.323a1.705,1.705,0,0,0-1.705,1.705v3.319a1.705,1.705,0,0,0,1.705,1.7h69.225a1.705,1.705,0,0,0,1.706-1.7v-3.319a1.706,1.706,0,0,0-1.706-1.705Z" fill="#33a568"/>
                    </g>
                    <g id="Group_136" data-name="Group 136">
                      <path id="Path_352" data-name="Path 352" d="M814.548,3412.769a.264.264,0,0,1,.264.263v3.32a.264.264,0,0,1-.264.263H745.323a.263.263,0,0,1-.263-.263v-3.32a.263.263,0,0,1,.263-.263h69.225m0-1.442H745.323a1.706,1.706,0,0,0-1.705,1.705v3.32a1.706,1.706,0,0,0,1.705,1.7h69.225a1.706,1.706,0,0,0,1.706-1.7v-3.32a1.706,1.706,0,0,0-1.706-1.705Z" fill="#33a568"/>
                    </g>
                    <g id="Group_137" data-name="Group 137">
                      <path id="Path_353" data-name="Path 353" d="M814.548,3451.224a.264.264,0,0,1,.264.263v3.319a.264.264,0,0,1-.264.263H745.323a.263.263,0,0,1-.263-.263v-3.319a.263.263,0,0,1,.263-.263h69.225m0-1.442H745.323a1.705,1.705,0,0,0-1.705,1.705v3.319a1.705,1.705,0,0,0,1.705,1.705h69.225a1.705,1.705,0,0,0,1.706-1.705v-3.319a1.705,1.705,0,0,0-1.706-1.705Z" fill="#33a568"/>
                    </g>
                    <g id="Group_138" data-name="Group 138">
                      <path id="Path_354" data-name="Path 354" d="M814.548,3471.412a.264.264,0,0,1,.264.264V3475a.264.264,0,0,1-.264.263H745.323a.263.263,0,0,1-.263-.263v-3.319a.263.263,0,0,1,.263-.264h69.225m0-1.442H745.323a1.706,1.706,0,0,0-1.705,1.706V3475a1.706,1.706,0,0,0,1.705,1.7h69.225a1.706,1.706,0,0,0,1.706-1.7v-3.319a1.706,1.706,0,0,0-1.706-1.706Z" fill="#33a568"/>
                    </g>
                    <g id="Group_139" data-name="Group 139">
                      <path id="Path_355" data-name="Path 355" d="M814.548,3491.6a.264.264,0,0,1,.264.263v3.319a.264.264,0,0,1-.264.263H745.323a.263.263,0,0,1-.263-.263v-3.319a.263.263,0,0,1,.263-.263h69.225m0-1.442H745.323a1.705,1.705,0,0,0-1.705,1.705v3.319a1.706,1.706,0,0,0,1.705,1.706h69.225a1.706,1.706,0,0,0,1.706-1.706v-3.319a1.706,1.706,0,0,0-1.706-1.705Z" fill="#33a568"/>
                    </g>
                    <g id="Group_140" data-name="Group 140">
                      <path id="Path_356" data-name="Path 356" d="M814.548,3511.79a.264.264,0,0,1,.264.263v3.319a.264.264,0,0,1-.264.263H745.323a.263.263,0,0,1-.263-.263v-3.319a.263.263,0,0,1,.263-.263h69.225m0-1.442H745.323a1.705,1.705,0,0,0-1.705,1.705v3.319a1.705,1.705,0,0,0,1.705,1.7h69.225a1.705,1.705,0,0,0,1.706-1.7v-3.319a1.706,1.706,0,0,0-1.706-1.705Z" fill="#33a568"/>
                    </g>
                  </g>
                  <g id="Group_146" data-name="Group 146">
                    <g id="Group_142" data-name="Group 142">
                      <rect id="Rectangle_359" data-name="Rectangle 359" width="36.92" height="6.73" rx="3.365" transform="translate(687.471 3350.761)" fill="#33a568"/>
                    </g>
                    <g id="Group_143" data-name="Group 143">
                      <rect id="Rectangle_360" data-name="Rectangle 360" width="36.92" height="6.73" rx="3.365" transform="translate(687.471 3370.95)" fill="#33a568"/>
                    </g>
                    <g id="Group_144" data-name="Group 144">
                      <rect id="Rectangle_361" data-name="Rectangle 361" width="36.92" height="6.73" rx="3.365" transform="translate(687.471 3391.139)" fill="#33a568"/>
                    </g>
                    <g id="Group_145" data-name="Group 145">
                      <rect id="Rectangle_362" data-name="Rectangle 362" width="36.92" height="6.73" rx="3.365" transform="translate(687.471 3411.327)" fill="#33a568"/>
                    </g>
                  </g>
                </g>
                <g id="Group_148" data-name="Group 148">
                  <rect id="Rectangle_363" data-name="Rectangle 363" width="127.918" height="6.73" rx="3.365" transform="translate(687.903 3432.606)" fill="#69f0ae"/>
                </g>
                <g id="Group_149" data-name="Group 149">
                  <path id="Path_357" data-name="Path 357" d="M808,3555.66H695.725a3.248,3.248,0,0,1-3.117-3.365h0a3.248,3.248,0,0,1,3.117-3.365H808a3.249,3.249,0,0,1,3.117,3.365h0A3.249,3.249,0,0,1,808,3555.66Z" fill="#69f0ae"/>
                </g>
              </g>
            </g>
            <g id="Group_155" data-name="Group 155">
              <path id="Path_358" data-name="Path 358" d="M745.538,3447.154A28.84,28.84,0,0,0,716.7,3476v252.973a28.841,28.841,0,0,1-28.84,28.841H545.96V3476a28.841,28.841,0,0,1,28.841-28.841Z" fill="#fff"/>
              <path id="Path_359" data-name="Path 359" d="M756.11,3449.163l75.951,35.962v96.62s-.693,28.841-28.841,28.841c-31.587,0-28.841-28.841-28.841-28.841Z" opacity="0.2"/>
              <path id="Path_360" data-name="Path 360" d="M803.22,3610.586H716.7V3476a28.841,28.841,0,1,1,57.682,0v105.75A28.839,28.839,0,0,0,803.22,3610.586Z" fill="#666"/>
              <g id="Group_154" data-name="Group 154">
                <g id="Group_152" data-name="Group 152">
                  <rect id="Rectangle_166" data-name="Rectangle 166" width="112.408" height="137.171" transform="translate(573.916 3467.97)" fill="url(#linear-gradient-9)"/>
                  <rect id="Rectangle_167" data-name="Rectangle 167" width="106.633" height="113.992" transform="translate(576.804 3487.938)" fill="#fff"/>
                  <rect id="Rectangle_168" data-name="Rectangle 168" width="81.787" height="86.297" transform="translate(589.227 3497.598)" fill="url(#linear-gradient-10)"/>
                  <rect id="Rectangle_169" data-name="Rectangle 169" width="77.283" height="82.433" transform="translate(591.479 3499.53)" fill="#33a568"/>
                  <path id="Path_85" data-name="Path 85" d="M651.709,3532.081a54.644,54.644,0,0,0-3.317-14.384,23.791,23.791,0,0,0-9.078-11.39,10.376,10.376,0,0,0-5.018-1.731c-3.282-.115-6.315,2.1-8.005,4.914a23.064,23.064,0,0,0-1.494,3.039,7.078,7.078,0,0,0-5.871,6.483,18.04,18.04,0,0,0,2.55,34.062v3.076a18.1,18.1,0,0,0-13.525,17.456v8.374h36.064v-8.385a18.1,18.1,0,0,0-13.513-17.457v-3.077a18.04,18.04,0,0,0,13.524-17.463v-.127l2.031,4.519c1.932,4.3,3.91,8.916,3.155,13.576C652.913,3547.22,652.608,3539.371,651.709,3532.081Z" fill="#fff"/>
                  <rect id="Rectangle_170" data-name="Rectangle 170" width="106.997" height="17.388" transform="translate(576.622 3470.549)" fill="#33a568"/>
                </g>
                <rect id="Rectangle_171" data-name="Rectangle 171" width="109.741" height="5.796" transform="translate(577.589 3621.536)" fill="#e0e0e0"/>
                <rect id="Rectangle_173" data-name="Rectangle 173" width="64.737" height="5.796" transform="translate(576.804 3633.775)" fill="#33a568" opacity="0.2"/>
                <rect id="Rectangle_174" data-name="Rectangle 174" width="44.212" height="5.796" transform="translate(576.804 3658.245)" fill="#69f0ae" opacity="0.2"/>
                <rect id="Rectangle_175" data-name="Rectangle 175" width="44.212" height="5.796" transform="translate(628.907 3658.245)" fill="#69f0ae"/>
                <g id="Group_153" data-name="Group 153">
                  <rect id="Rectangle_176" data-name="Rectangle 176" width="111.059" height="6.048" transform="translate(576.271 3671.733)" fill="#e0e0e0"/>
                  <rect id="Rectangle_177" data-name="Rectangle 177" width="37.02" height="6.048" transform="translate(576.271 3684.896)" fill="#e0e0e0"/>
                  <rect id="Rectangle_178" data-name="Rectangle 178" width="37.02" height="6.048" transform="translate(650.31 3684.896)" fill="#69f0ae"/>
                  <rect id="Rectangle_179" data-name="Rectangle 179" width="111.059" height="6.048" transform="translate(576.271 3698.063)" fill="#e0e0e0"/>
                  <rect id="Rectangle_180" data-name="Rectangle 180" width="111.059" height="6.048" transform="translate(576.271 3711.23)" fill="#e0e0e0"/>
                  <rect id="Rectangle_181" data-name="Rectangle 181" width="11.727" height="7.472" transform="translate(575.812 3723.683)" fill="url(#linear-gradient-11)"/>
                  <rect id="Rectangle_182" data-name="Rectangle 182" width="11.037" height="6.048" transform="translate(576.271 3724.394)" fill="#33a568"/>
                  <rect id="Rectangle_183" data-name="Rectangle 183" width="11.037" height="6.048" transform="translate(625.938 3724.394)" fill="#69f0ae"/>
                  <rect id="Rectangle_184" data-name="Rectangle 184" width="11.037" height="6.048" transform="translate(676.293 3724.394)" fill="#69f0ae"/>
                </g>
              </g>
            </g>
          </g>
        </g>
        <g id="Group_158" data-name="Group 158">
          <path id="Path_361" data-name="Path 361" d="M841.693,3276.577a4.58,4.58,0,0,0-6.476,0l-7.461,7.459-2.325,2.325L822.5,3289.3l-.56.56-4.449,4.447-43.728,43.729-1.9,1.9a1.442,1.442,0,0,0-.326.491l-2.934,7.333a1.466,1.466,0,0,0,1.906,1.907l7.335-2.933a1.49,1.49,0,0,0,.491-.326l1.9-1.9,1.342-1.34,40.921-40.921,2.933-2.933,16.262-16.262A4.577,4.577,0,0,0,841.693,3276.577Zm-65.216,67.541-3.87,1.552,1.552-3.879,1.676-1.683,2.327,2.327Zm3.758-3.758-2.327-2.327,56.324-56.322,2.327,2.325Zm59.383-59.383-.986.985-2.326-2.327.986-.985a1.645,1.645,0,1,1,2.326,2.327Z" opacity="0.3"/>
          <path id="Path_362" data-name="Path 362" d="M846.875,3273.985a4.581,4.581,0,0,0-6.476,0l-7.461,7.46-2.325,2.325-2.933,2.936-.559.56-4.449,4.447-43.728,43.729-1.9,1.9a1.442,1.442,0,0,0-.325.49l-2.935,7.334a1.467,1.467,0,0,0,1.907,1.907l7.335-2.933a1.512,1.512,0,0,0,.491-.326l1.9-1.9,1.341-1.34,40.921-40.921,2.933-2.934,16.262-16.262A4.577,4.577,0,0,0,846.875,3273.985Zm-65.215,67.542-3.87,1.551,1.551-3.878,1.676-1.683,2.327,2.327Zm3.758-3.759-2.327-2.326,56.323-56.323,2.327,2.326Zm59.382-59.382-.985.985-2.327-2.327.987-.985a1.645,1.645,0,0,1,2.325,2.327Z" fill="#33a568"/>
        </g>
      </g>
      <path id="Path_363" data-name="Path 363" d="M601.949,3265H542.568a2.163,2.163,0,0,0,0,4.325h59.381a2.163,2.163,0,1,0,0-4.325Z" fill="#80e187"/>
      <path id="Path_364" data-name="Path 364" d="M615.736,3255.275H556.355a2.163,2.163,0,0,0,0,4.326h59.381a2.163,2.163,0,0,0,0-4.326Z" fill="#80e187"/>
      <g id="Group_162" data-name="Group 162">
        <g id="Group_160" data-name="Group 160" opacity="0.3">
          <path id="Path_365" data-name="Path 365" d="M552.7,3414.9a1.7,1.7,0,0,1,1.253.512,1.654,1.654,0,0,1,.283.371h.017l5.51,11.036,5.51-11.036.017.018a1.864,1.864,0,0,1,.3-.389,1.759,1.759,0,0,1,2.49.009,1.717,1.717,0,0,1,.512,1.245,1.649,1.649,0,0,1-.335,1.024l-6.835,13.721a1.513,1.513,0,0,1-.4.617,1.68,1.68,0,0,1-1.254.53,1.656,1.656,0,0,1-1.236-.53,1.545,1.545,0,0,1-.406-.6l-5.421-10.86-5.4,10.843a1.526,1.526,0,0,1-.406.617,1.678,1.678,0,0,1-1.254.53,1.655,1.655,0,0,1-1.235-.53,1.549,1.549,0,0,1-.407-.6l-6.869-13.756a1.677,1.677,0,0,1-.318-1.006,1.773,1.773,0,0,1,3.02-1.254,1.649,1.649,0,0,1,.282.371h.018l5.509,11.036,5.51-11.036.017.018a1.907,1.907,0,0,1,.3-.389A1.684,1.684,0,0,1,552.7,3414.9Z"/>
          <path id="Path_366" data-name="Path 366" d="M588.067,3414.9a1.7,1.7,0,0,1,1.253.512,1.656,1.656,0,0,1,.283.371h.017l5.51,11.036,5.51-11.036.017.018a1.9,1.9,0,0,1,.3-.389,1.759,1.759,0,0,1,2.49.009,1.717,1.717,0,0,1,.512,1.245,1.649,1.649,0,0,1-.335,1.024l-6.834,13.721a1.525,1.525,0,0,1-.406.617,1.679,1.679,0,0,1-1.254.53,1.656,1.656,0,0,1-1.236-.53,1.546,1.546,0,0,1-.406-.6l-5.421-10.86-5.4,10.843a1.539,1.539,0,0,1-.407.617,1.678,1.678,0,0,1-1.254.53,1.655,1.655,0,0,1-1.235-.53,1.548,1.548,0,0,1-.407-.6l-6.869-13.756a1.677,1.677,0,0,1-.318-1.006,1.773,1.773,0,0,1,3.02-1.254,1.649,1.649,0,0,1,.282.371h.018L581,3426.819l5.51-11.036.017.018a1.9,1.9,0,0,1,.3-.389A1.684,1.684,0,0,1,588.067,3414.9Z"/>
          <path id="Path_367" data-name="Path 367" d="M623.437,3414.9a1.7,1.7,0,0,1,1.253.512,1.656,1.656,0,0,1,.283.371h.017l5.51,11.036,5.509-11.036.018.018a1.867,1.867,0,0,1,.3-.389,1.759,1.759,0,0,1,2.49.009,1.717,1.717,0,0,1,.512,1.245,1.644,1.644,0,0,1-.336,1.024l-6.834,13.721a1.523,1.523,0,0,1-.4.617,1.68,1.68,0,0,1-1.254.53,1.66,1.66,0,0,1-1.237-.53,1.533,1.533,0,0,1-.405-.6l-5.421-10.86-5.4,10.843a1.526,1.526,0,0,1-.406.617,1.678,1.678,0,0,1-1.254.53,1.658,1.658,0,0,1-1.236-.53,1.545,1.545,0,0,1-.406-.6l-6.869-13.756a1.677,1.677,0,0,1-.318-1.006,1.773,1.773,0,0,1,3.02-1.254,1.678,1.678,0,0,1,.282.371h.017l5.51,11.036,5.51-11.036.017.018a1.9,1.9,0,0,1,.3-.389A1.687,1.687,0,0,1,623.437,3414.9Z"/>
        </g>
        <g id="Group_161" data-name="Group 161">
          <path id="Path_368" data-name="Path 368" d="M554.828,3412.769a1.705,1.705,0,0,1,1.253.513,1.6,1.6,0,0,1,.283.371h.018l5.509,11.036,5.51-11.036.017.017a1.933,1.933,0,0,1,.3-.388,1.755,1.755,0,0,1,2.489.009,1.715,1.715,0,0,1,.513,1.245,1.65,1.65,0,0,1-.336,1.024l-6.834,13.72a1.529,1.529,0,0,1-.406.618,1.678,1.678,0,0,1-1.254.53,1.659,1.659,0,0,1-1.236-.53,1.553,1.553,0,0,1-.406-.6l-5.421-10.86-5.4,10.842a1.541,1.541,0,0,1-.407.618,1.676,1.676,0,0,1-1.253.53,1.656,1.656,0,0,1-1.236-.53,1.557,1.557,0,0,1-.407-.6l-6.868-13.756a1.672,1.672,0,0,1-.319-1.006,1.773,1.773,0,0,1,3.02-1.254,1.628,1.628,0,0,1,.283.371h.017l5.51,11.036,5.509-11.036.018.017a1.9,1.9,0,0,1,.3-.388A1.685,1.685,0,0,1,554.828,3412.769Z" fill="url(#linear-gradient-12)"/>
          <path id="Path_369" data-name="Path 369" d="M590.2,3412.769a1.706,1.706,0,0,1,1.253.513,1.6,1.6,0,0,1,.283.371h.018l5.509,11.036,5.51-11.036.017.017a1.933,1.933,0,0,1,.3-.388,1.755,1.755,0,0,1,2.489.009,1.715,1.715,0,0,1,.513,1.245,1.65,1.65,0,0,1-.336,1.024l-6.834,13.72a1.527,1.527,0,0,1-.406.618,1.678,1.678,0,0,1-1.254.53,1.659,1.659,0,0,1-1.236-.53,1.555,1.555,0,0,1-.406-.6l-5.421-10.86-5.4,10.842a1.541,1.541,0,0,1-.407.618,1.676,1.676,0,0,1-1.253.53,1.656,1.656,0,0,1-1.236-.53,1.543,1.543,0,0,1-.406-.6l-6.869-13.756a1.679,1.679,0,0,1-.319-1.006,1.773,1.773,0,0,1,3.02-1.254,1.627,1.627,0,0,1,.283.371h.017l5.51,11.036,5.509-11.036.018.017a1.893,1.893,0,0,1,.3-.388A1.685,1.685,0,0,1,590.2,3412.769Z" fill="url(#linear-gradient-13)"/>
          <path id="Path_370" data-name="Path 370" d="M625.567,3412.769a1.706,1.706,0,0,1,1.253.513,1.63,1.63,0,0,1,.283.371h.018l5.509,11.036,5.51-11.036.017.017a1.93,1.93,0,0,1,.3-.388,1.757,1.757,0,0,1,2.49.009,1.714,1.714,0,0,1,.512,1.245,1.65,1.65,0,0,1-.335,1.024l-6.834,13.72a1.527,1.527,0,0,1-.406.618,1.678,1.678,0,0,1-1.254.53,1.658,1.658,0,0,1-1.236-.53,1.555,1.555,0,0,1-.406-.6l-5.421-10.86-5.4,10.842a1.541,1.541,0,0,1-.407.618,1.678,1.678,0,0,1-1.254.53,1.655,1.655,0,0,1-1.235-.53,1.556,1.556,0,0,1-.407-.6l-6.869-13.756a1.678,1.678,0,0,1-.318-1.006,1.773,1.773,0,0,1,3.02-1.254,1.623,1.623,0,0,1,.282.371h.018l5.509,11.036,5.51-11.036.017.017a1.933,1.933,0,0,1,.3-.388A1.685,1.685,0,0,1,625.567,3412.769Z" fill="url(#linear-gradient-14)"/>
        </g>
      </g>
    </g>
  </g>
</svg>
